<?xml version="1.0" standalone="no"?>
<!DOCTYPE svg PUBLIC "-//W3C//DTD SVG 20010904//EN"
 "http://www.w3.org/TR/2001/REC-SVG-20010904/DTD/svg10.dtd">
<svg version="1.0" xmlns="http://www.w3.org/2000/svg"
 width="1024.000000pt" height="1024.000000pt" viewBox="0 0 1024.000000 1024.000000"
 preserveAspectRatio="xMidYMid meet">
<metadata>
Created by potrace 1.11, written by Peter Selinger 2001-2013
</metadata>
<g transform="translate(0.000000,1024.000000) scale(0.100000,-0.100000)"
fill="#000000" stroke="none">
<path d="M4987 10184 c-1 -1 -69 -5 -152 -8 -155 -7 -206 -11 -287 -20 -27 -4
-72 -9 -100 -12 -163 -17 -508 -84 -673 -130 -49 -14 -99 -27 -109 -29 -10 -3
-35 -10 -55 -17 -20 -7 -38 -13 -41 -13 -29 -5 -236 -79 -355 -127 -148 -59
-461 -210 -543 -262 -23 -14 -44 -26 -47 -26 -22 0 -543 -349 -565 -379 -3 -3
-36 -31 -75 -61 -157 -124 -379 -330 -560 -521 -119 -126 -156 -168 -293 -334
-9 -11 -65 -85 -124 -165 -59 -80 -112 -150 -118 -157 -5 -7 -10 -14 -10 -17
0 -3 -33 -56 -73 -118 -41 -62 -87 -138 -103 -168 -16 -30 -31 -57 -34 -60
-18 -18 -181 -352 -230 -470 -23 -58 -49 -118 -56 -135 -7 -16 -43 -120 -78
-230 -69 -213 -105 -340 -121 -430 -2 -11 -7 -31 -10 -45 -12 -51 -43 -216
-49 -264 -4 -27 -9 -52 -11 -56 -2 -3 -7 -37 -10 -75 -4 -38 -8 -76 -10 -85
-6 -34 -17 -151 -30 -345 -12 -177 -7 -576 10 -755 2 -19 6 -69 10 -110 3 -41
8 -86 10 -100 2 -14 6 -47 10 -75 3 -27 7 -61 10 -75 3 -14 10 -54 15 -90 6
-36 20 -110 31 -165 12 -55 25 -116 29 -135 29 -146 125 -455 203 -655 96
-247 267 -589 391 -780 18 -27 55 -84 81 -125 27 -41 51 -77 54 -80 3 -3 20
-25 36 -50 30 -43 154 -207 218 -285 169 -207 434 -480 647 -665 41 -36 77
-68 80 -71 12 -14 205 -163 305 -235 325 -237 701 -441 1081 -589 106 -41 370
-129 417 -139 12 -3 87 -21 167 -41 203 -49 227 -55 318 -70 52 -8 60 -10 197
-28 377 -52 841 -64 1185 -32 157 15 187 18 200 20 8 2 42 6 75 10 76 9 136
19 198 31 12 2 39 6 62 10 22 3 69 12 105 21 36 8 79 17 95 20 74 10 402 108
567 168 244 89 662 284 748 349 8 6 31 20 50 30 61 33 252 157 345 224 82 60
313 238 325 251 3 4 43 39 90 80 267 230 581 571 812 881 73 98 268 392 268
404 0 3 18 35 39 70 22 35 48 81 59 103 10 21 47 93 80 160 34 68 62 125 62
127 0 3 13 33 29 68 116 254 260 714 297 945 3 21 8 41 9 44 5 7 42 228 50
294 8 72 16 135 20 171 3 17 7 71 10 120 3 49 8 116 10 149 6 82 6 502 1 594
-11 160 -21 276 -31 351 -3 19 -7 58 -10 86 -3 28 -8 61 -10 75 -3 13 -10 53
-16 89 -18 114 -20 125 -25 142 -3 9 -7 27 -9 40 -4 21 -8 37 -20 96 -12 57
-41 171 -55 217 -56 185 -99 318 -132 405 -228 604 -588 1170 -1053 1659 -708
744 -1478 1210 -2387 1445 -75 19 -147 37 -160 40 -13 2 -57 11 -98 19 -66 14
-103 21 -175 32 -76 13 -278 39 -390 50 -91 10 -610 26 -618 19z m-893 -2550
c23 -12 46 -33 58 -54 17 -33 18 -78 18 -931 l0 -896 948 1 947 1 5 905 5 905
23 32 c39 55 49 56 613 56 490 0 518 -1 549 -19 18 -10 42 -32 54 -47 l21 -28
0 -2432 c-1 -2648 3 -2466 -55 -2509 -14 -10 -39 -21 -55 -24 -17 -4 -254 -6
-527 -7 -568 0 -571 0 -608 74 -19 37 -20 62 -20 933 l0 895 -950 -1 -950 0 0
-890 c0 -953 1 -928 -50 -976 -12 -11 -41 -24 -63 -28 -22 -3 -264 -6 -537 -6
-463 0 -498 1 -535 18 -22 11 -48 34 -59 54 -21 35 -21 38 -21 2440 -1 1323 2
2422 6 2444 4 23 19 50 36 68 41 41 79 43 638 42 437 -2 474 -3 509 -20z"/>
</g>
</svg>
