<?xml version="1.0" encoding="utf-8"?>
<!-- Generator: Adobe Illustrator 18.1.1, SVG Export Plug-In . SVG Version: 6.00 Build 0)  -->
<svg version="1.1" id="Calque_1" xmlns="http://www.w3.org/2000/svg" xmlns:xlink="http://www.w3.org/1999/xlink" x="0px" y="0px"
	 viewBox="0 0 384 512" enable-background="new 0 0 384 512" xml:space="preserve">
<path fill="#010202" d="M192,0C86,0,0,86,0,192c0,77.4,27,99,172.3,309.7c9.5,13.8,29.9,13.8,39.5,0C357,291,384,269.4,384,192
	C384,86,298,0,192,0z M239.1,283.1c-10.7,4.9-23.1,7.3-37,7.3c-12.7,0-24.5-2.1-35.3-6.3c-10.8-4.2-20.1-10.1-28.1-17.8
	c-7.9-7.7-14.1-16.9-18.6-27.6c-4.5-10.7-6.8-22.5-6.8-35.4c0-13.2,2.3-25.2,6.9-35.9c4.6-10.7,10.9-19.8,19-27.4
	c8.1-7.5,17.5-13.3,28.4-17.3c10.9-4,22.6-6.1,35.2-6.1c11.6,0,23.1,2.1,34.3,6.2c11.3,4.1,20.4,10.1,27.4,18l-27,27
	c-3.7-5.1-8.6-8.9-14.7-11.4c-6.1-2.5-12.3-3.7-18.6-3.7c-7,0-13.4,1.3-19.2,3.8c-5.8,2.6-10.8,6.1-15,10.6c-4.2,4.5-7.5,9.8-9.8,16
	c-2.3,6.1-3.5,12.8-3.5,20.1c0,7.5,1.2,14.3,3.5,20.5c2.3,6.2,5.5,11.5,9.7,16c4.1,4.4,9,7.9,14.8,10.4c5.7,2.5,12,3.7,18.9,3.7
	c7.9,0,14.8-1.5,20.7-4.7c5.9-3.1,10.6-7.1,14.2-12.1l27.7,26.1C258.8,271.6,249.8,278.2,239.1,283.1z"/>
</svg>
