<?xml version="1.0" encoding="utf-8"?>
<!-- Generator: Adobe Illustrator 23.0.1, SVG Export Plug-In . SVG Version: 6.00 Build 0)  -->
<svg version="1.1" id="Calque_1" xmlns="http://www.w3.org/2000/svg" xmlns:xlink="http://www.w3.org/1999/xlink" x="0px" y="0px"
	 viewBox="0 0 300 300" style="enable-background:new 0 0 300 300;" xml:space="preserve">
<style type="text/css">
	.st0{fill:#495057;}
</style>
<title>solid</title>
<path class="st0" d="M153.3,8c0.9-0.9,1.4-2.1,1.4-3.3c0-1.2-0.5-2.4-1.4-3.3c-1.8-1.8-4.8-1.8-6.6,0c0,0,0,0,0,0
	c-0.9,0.9-1.4,2.1-1.4,3.3c0,1.2,0.5,2.5,1.4,3.3C148.5,9.8,151.5,9.8,153.3,8C153.3,8,153.3,8,153.3,8z"/>
<path class="st0" d="M234,3.9c-0.5-2.6-2.9-4.2-5.4-3.8c-2.6,0.5-4.2,2.9-3.8,5.4c0.4,2.3,10.9,60.6,31.8,95.3
	c13.5,22.3,18.4,46.6,13.4,66.6c-6.6,26.3-34.1,40.9-56.8,43.2c-19.3,1.9-37.5-5.2-52.3-20.3c-2.3-2.3-4.4-5-6.5-7.5
	c-1.3-1.9-3.7-2.8-6-2.1c-0.6,0.2-1.1,0.6-1.6,1l-0.4,0.4l0,0c-15.8,20.6-36.9,30.7-59.4,28.4c-22.5-2.3-50.3-16.7-56.9-43.1
	c-5-20,0-44.3,13.4-66.6C64.4,66.1,74.8,8,75.3,5.5c0.5-2.6-1.2-5-3.8-5.4s-5,1.2-5.4,3.8l0,0C66,4.5,55.5,62.8,35.4,96
	c-7.5,12.5-18.8,35.8-16.4,61.9c-0.2,0.7,16.2,138,16.2,138c0.3,2.3,2.3,4.1,4.6,4.1h0.6c2.6-0.3,4.4-2.6,4.1-5.2c0,0,0,0,0-0.1
	L32.1,191.9C45.5,208.6,67.3,218,86,220c2.4,0.2,4.9,0.4,7.3,0.4c14.8,0,29.2-4.8,41.2-13.5c1.7,1.8,3.7,3.3,6,4.3l-16.2,78.5
	c-0.6,2.5,1,5,3.6,5.6c0.1,0,0.1,0,0.2,0c0.3,0,0.6,0,0.9,0c2.3,0,4.2-1.5,4.7-3.8l15.9-78.3h0.6h0.4l15.9,78.3
	c0.5,2.2,2.4,3.8,4.7,3.8c0.3,0,0.6,0,0.9,0c2.5-0.5,4.2-2.9,3.8-5.4c0-0.1,0-0.1,0-0.2l-16.1-78.5c2.3-1,4.3-2.5,6-4.4
	c11.9,8.7,26.3,13.5,41.1,13.5c2.4,0,4.9-0.1,7.3-0.4c18.8-1.9,40.5-11.3,53.9-28.1l-12.5,102.9c-0.3,2.6,1.5,4.9,4.1,5.2h0.6
	c2.4,0,4.4-1.8,4.7-4.1c0,0,16.4-137.4,16.2-138c2.3-26.1-8.9-49.4-16.4-61.9C244.5,62.8,234,4.5,234,3.9z M150.1,203.9
	c-2.7,0.1-5.4-0.8-7.7-2.3c2.9-2.6,5.6-5.5,8-8.6c1.2,1.4,2.4,2.7,3.7,4c0.9,1,2.6,2.8,4,4.3C155.8,203.1,153,204,150.1,203.9z"/>
<path class="st0" d="M145.3,96.1c0,2.6,2.1,4.7,4.7,4.7s4.7-2.1,4.7-4.7V23.4c0-2.6-2.1-4.7-4.7-4.7s-4.7,2.1-4.7,4.7V96.1z"/>
<path class="st0" d="M145.3,153.9c-2.3-1.3-5.1-0.5-6.4,1.8c-1,1.7-0.8,3.8,0.4,5.3l7,8.5c1.7,2,4.6,2.3,6.6,0.6
	c0.2-0.2,0.4-0.4,0.6-0.6l7-8.5c1.6-2,1.3-5-0.7-6.6c-1.5-1.2-3.6-1.4-5.3-0.4v-15.6c0-2.6-2.1-4.7-4.7-4.7s-4.7,2.1-4.7,4.7V153.9z
	"/>
<path class="st0" d="M197.8,162.6c-1.2-2.3-4-3.2-6.3-2c0,0,0,0,0,0l-13.8,7.2c0-2.6-2.1-4.7-4.7-4.7c-1.8,0-3.4,1-4.2,2.6
	l-4.3,10.1c-1,2.4,0.1,5.1,2.5,6.1c0.3,0.1,0.5,0.2,0.8,0.3l10.8,2.3c0.3,0,0.7,0,1,0c2.6,0,4.7-2.1,4.7-4.7c0-1.6-0.8-3-2.1-3.9
	l13.9-7.2C198.1,167.6,199,164.9,197.8,162.6z"/>
<path class="st0" d="M115.1,181.1c0.5,2.2,2.4,3.8,4.7,3.7c0.3,0,0.7,0,1,0l10.8-2.3c2.5-0.5,4.1-3,3.6-5.6
	c-0.1-0.3-0.1-0.6-0.3-0.8l-4.3-10.1c-1-2.4-3.8-3.4-6.2-2.4c-1.8,0.8-2.9,2.5-2.8,4.4l-13.9-7.2c-2.3-1.1-5.1-0.2-6.3,2.2
	c-1.1,2.2-0.2,4.9,1.9,6.1l13.8,7.1C115.5,177.2,114.7,179.2,115.1,181.1z"/>
</svg>
