<svg height='300px' width='300px'  fill="#495057" xmlns="http://www.w3.org/2000/svg" xmlns:xlink="http://www.w3.org/1999/xlink" version="1.1" x="0px" y="0px" viewBox="0 0 100 100" enable-background="new 0 0 100 100" xml:space="preserve"><g><path d="M86.567,56.538c-1.543-13.39-6.682-23.959-15.712-32.313c-0.333-0.308-0.83-0.357-1.216-0.119   c-0.387,0.238-0.567,0.703-0.443,1.139c2.373,8.32,0.187,12.248-5.182,16.278c-3.102-17.593-7.1-22.576-16.381-34.136L46.024,5.38   c-0.283-0.354-0.765-0.476-1.184-0.3c-0.417,0.176-0.666,0.608-0.609,1.058c1.809,14.353-2.257,20.352-6.562,26.703   c-2.53,3.733-5.14,7.584-6.55,13.192c-3.094-2.686-5.407-7.886-6.438-14.582c-0.065-0.421-0.387-0.756-0.804-0.839   c-0.422-0.084-0.843,0.108-1.062,0.472C14.244,45.369,7.019,66.14,21.277,83.961c0.023,0.029,0.048,0.057,0.075,0.083   C28.518,91.212,37.981,95,48.715,95c5.182,0,10.463-0.885,15.698-2.629c12.478-4.16,21.451-15.928,22.328-29.284   C86.88,60.953,86.822,58.749,86.567,56.538z M48.602,63.188c1.909,2.19,4.053,2.291,4.143,2.294c0.19,0.007,0.37-0.038,0.532-0.129   c0.169-0.095,3.657-2.104,5.125-6.471c2.195,2.832,6.554,9.054,7.319,14.684c0.698,5.138-0.7,10.008-3.935,13.712   c-3.153,3.611-7.655,5.682-12.351,5.682c-8.871,0-15.309-8.644-15.309-20.554c0-9.103,8.432-20.182,11.61-23.005   C45.249,55.812,46.211,60.447,48.602,63.188z M84.722,62.954c-0.824,12.545-9.242,23.596-20.949,27.498   c-1.238,0.413-2.479,0.774-3.72,1.086c1.18-0.842,2.28-1.813,3.256-2.931c3.625-4.151,5.193-9.589,4.415-15.315   c-1.106-8.141-8.74-16.93-9.065-17.301c-0.259-0.296-0.667-0.416-1.045-0.304c-0.378,0.111-0.657,0.431-0.715,0.82   c-0.609,4.058-3.454,6.298-4.346,6.908c-0.478-0.106-1.498-0.46-2.485-1.624c-1.455-1.717-3.019-5.442-2.209-13.441   c0.05-0.5-0.063-0.907-0.336-1.209c-0.24-0.266-0.578-0.413-0.951-0.413c-2.942,0-14.47,15.02-14.47,25.676   c0,8.846,3.341,16.039,8.605,19.778c-6.867-1.393-12.956-4.613-17.887-9.529c-12.732-15.962-7.22-34.595,0.366-48.177   c1.475,6.755,4.34,11.835,8.042,14.149c0.281,0.175,0.632,0.202,0.936,0.071c0.305-0.131,0.526-0.404,0.591-0.73   c1.212-6.061,3.823-9.913,6.588-13.991c3.986-5.88,8.096-11.944,7.228-24.68c9.206,11.472,12.72,16.11,15.721,34.161   c0.057,0.342,0.285,0.631,0.604,0.766c0.318,0.134,0.685,0.096,0.971-0.102c5.949-4.139,9.266-8.261,8.045-16.001   c7.159,7.613,11.305,17.021,12.644,28.65C84.799,58.86,84.854,60.941,84.722,62.954z"></path></g></svg>