<svg height='300px' width='300px'  fill="#495057" xmlns="http://www.w3.org/2000/svg" xmlns:xlink="http://www.w3.org/1999/xlink" version="1.1" x="0px" y="0px" viewBox="0 0 100 100" style="enable-background:new 0 0 100 100;" xml:space="preserve"><path style="fill:#495057" d="M82.9135742,35.7709961c0-12.2915039-7.4482422-19.3413086-20.4355469-19.3413086  c-7.3398438,0-9.8388672,3.0048828-12.0424805,5.65625c-0.1439819,0.1730957-0.2945557,0.3413696-0.4397583,0.5133667  c-0.1431274-0.1696167-0.2858276-0.3388672-0.4308472-0.5133667c-2.2041016-2.6513672-4.7021484-5.65625-12.0429688-5.65625  c-12.9873047,0-20.4355469,7.0498047-20.4355469,19.3413086c0,5.0100098,1.7945557,8.8694458,5.0612183,11.2206421  c-0.2397461,2.1863403-0.6917114,7.9046631,0.2156372,14.3486938c1.5361328,10.9101562,6.2905273,18.546875,13.7495117,22.0854492  c0.2050781,0.097168,0.4243164,0.1445312,0.6420898,0.1445312c0.3491211,0,0.6943359-0.121582,0.9711914-0.3564453  c0.4492188-0.3808594,0.6337891-0.9907227,0.4716797-1.5571289c-0.0419922-0.1474609-4.1508789-14.8154297,1.4882812-22.2949219  C41.8666992,56.4692383,45.3369141,55.0024414,50,55.0024414s8.1333008,1.4667969,10.3139648,4.359375  c5.6391602,7.4794922,1.5302734,22.1474609,1.4882812,22.2949219c-0.1621094,0.5664062,0.0224609,1.1762695,0.4716797,1.5571289  c0.2768555,0.2348633,0.6220703,0.3564453,0.9711914,0.3564453c0.2177734,0,0.4370117-0.0478516,0.6420898-0.1445312  c7.4589844-3.5385742,12.2138672-11.175293,13.75-22.0854492c0.9099121-6.4594727,0.4536133-12.190918,0.2142944-14.3654785  C80.5482788,45.0576172,82.9135742,41.6973267,82.9135742,35.7709961z M65.4785156,79.003418  c0.9780273-5.234375,1.972168-15.1523438-2.7651367-21.4423828C59.9355469,53.8725586,55.6582031,52.0024414,50,52.0024414  s-9.9355469,1.8701172-12.7133789,5.5585938c-4.7373047,6.2900391-3.7436523,16.206543-2.765625,21.440918  c-10.3357544-7.567627-9.9630737-24.6119995-9.4969482-30.4797363c0.9559326,0.3630371,1.9817505,0.6454468,3.0916748,0.8210449  c0.0795898,0.0126953,0.1582031,0.0185547,0.2363281,0.0185547c0.7250977,0,1.362793-0.5268555,1.4794922-1.265625  c0.1293945-0.8183594-0.4287109-1.5864258-1.2470703-1.7158203c-3.8769531-0.6132812-8.4980469-2.9516602-8.4980469-10.609375  c0-13.5063477,9.4814453-16.3413086,17.4355469-16.3413086c5.9335938,0,7.6953125,2.1196289,9.7358398,4.5742188  c1.7524414,2.1079102,3.7387695,4.4975586,8.2773438,5.2509766c0.8164062,0.1328125,1.5898438-0.4169922,1.7255859-1.234375  c0.1352539-0.8173828-0.4169922-1.5898438-1.234375-1.7255859c-1.7105103-0.2838745-2.9160767-0.8447266-3.8966064-1.5767212  c0.2036133-0.2384644,0.4122314-0.4734497,0.6124268-0.7147827c2.0405273-2.4541016,3.8022461-4.5737305,9.7358398-4.5737305  c7.9541016,0,17.4355469,2.8349609,17.4355469,16.3413086c0,7.7724609-4.7426758,10.0776367-8.7211914,10.6430664  c-0.8203125,0.1162109-1.390625,0.8754883-1.2739258,1.6958008c0.105957,0.7485352,0.7480469,1.2890625,1.4829102,1.2890625  c0.0703125,0,0.1416016-0.0048828,0.2128906-0.0151367c0.887085-0.1259766,2.0830688-0.3815918,3.3634644-0.8741455  C75.4485474,54.3642578,75.840332,71.425415,65.4785156,79.003418z"></path></svg>
