<svg height='300px' width='300px'  fill="#495057" xmlns="http://www.w3.org/2000/svg" xmlns:xlink="http://www.w3.org/1999/xlink" version="1.1" x="0px" y="0px" viewBox="0 0 100 100" style="enable-background:new 0 0 100 100;" xml:space="preserve"><path style="" d="M54.179,49.857c2.034-6.859,5.575-12.082,10.523-15.524c0.375-0.261,0.467-0.776,0.206-1.151  c-0.261-0.375-0.776-0.467-1.151-0.206c-5.264,3.661-9.02,9.183-11.164,16.411c-1.116,3.764-5.344,6.928-10.226,5.482  c-2.777-0.824-4.152-2.655-4.816-4.047c-0.903-1.891-0.882-3.711-0.59-4.695c0.849-2.862,2.37-5.278,4.65-7.385  c2.558-2.364,9.861-8.303,9.935-8.363c0.354-0.288,0.408-0.809,0.12-1.163c-0.288-0.354-0.809-0.408-1.163-0.12  c-0.302,0.245-7.418,6.032-10.014,8.431c-0.099,0.092-0.188,0.187-0.285,0.28c-2-0.49-4.015-0.346-5.723,0.434  c-2.215,1.011-3.828,3.035-4.664,5.852c-0.571,1.927-0.324,5.091,1.571,7.486c0.691,0.873,1.752,1.828,3.319,2.417  c-0.013,0.009-0.027,0.015-0.039,0.024c-1.819,1.303-2.593,3.984-1.97,6.828c0.936,4.281-0.977,13.373-0.997,13.464  c-0.095,0.447,0.19,0.885,0.636,0.981c0.446,0.094,0.885-0.19,0.981-0.636c0.082-0.387,2.007-9.533,0.995-14.162  c-0.474-2.165,0.056-4.227,1.318-5.131c0.861-0.618,1.923-0.579,3.069,0.113c4.278,2.58,8.014,1.762,8.718,1.573  c0.162-0.035,0.764,0.191,1.186,0.786c0.242,0.342,0.449,0.845,0.302,1.477c-0.005,0.017-0.008,0.036-0.013,0.053  c-0.054,0.207-0.145,0.427-0.287,0.661c-1.639,2.69-4.289,12.491-4.59,18.071c-0.025,0.456,0.325,0.845,0.781,0.87  c0.015,0.001,0.03,0.001,0.045,0.001c0.436,0,0.801-0.341,0.825-0.782c0.206-3.815,1.495-9.349,2.734-13.233  c0.12,3.331,0.755,6.978,1.411,9.953c0.085,0.386,0.427,0.649,0.806,0.649c0.059,0,0.119-0.006,0.179-0.02  c0.446-0.098,0.728-0.539,0.629-0.985c-1.016-4.611-1.994-10.865-0.957-14.68c0.011-0.037,0.018-0.073,0.027-0.11  c0.005-0.019,0.009-0.04,0.015-0.059c0.002-0.008,0-0.015,0.002-0.022c0.235-1.004,0.033-2.012-0.621-2.883  c-0.267-0.356-0.59-0.652-0.934-0.882C51.518,54.675,53.431,52.38,54.179,49.857z M32.686,50.555  c-1.461-1.847-1.751-4.411-1.283-5.99c0.706-2.379,1.972-4,3.765-4.819c1.102-0.503,2.377-0.677,3.687-0.516  c-1.616,1.899-2.765,4.017-3.479,6.427c-0.501,1.691-0.24,3.943,0.683,5.877c0.195,0.408,0.442,0.847,0.748,1.293  C35.086,52.582,33.681,51.812,32.686,50.555z M28.575,57.893c1.148,5.823,1.605,10.618,0.341,16.521  c-0.116,0.543-0.596,0.915-1.13,0.915c-0.08,0-0.162-0.008-0.243-0.026c-0.625-0.134-1.023-0.749-0.889-1.374  c1.181-5.515,0.743-10.054-0.348-15.589c-0.999-5.069-2.368-12.013-0.557-18.037c2.142-7.129,8.575-12.352,14.25-16.96  c0.871-0.707,1.694-1.375,2.493-2.043c0.49-0.41,1.22-0.345,1.63,0.146c0.41,0.49,0.344,1.22-0.146,1.63  c-0.811,0.678-1.64,1.351-2.518,2.064c-5.416,4.398-11.555,9.382-13.493,15.83C26.318,46.444,27.623,53.061,28.575,57.893z   M74.591,35.785c-8.061,5.006-13.003,12.002-16.775,18.186c-2.617,4.291-1.932,7.348-0.896,11.976  c0.147,0.656,0.299,1.334,0.447,2.043c0.131,0.625-0.27,1.239-0.896,1.369c-0.08,0.017-0.16,0.025-0.238,0.025  c-0.536,0-1.018-0.375-1.132-0.921c-0.146-0.697-0.295-1.365-0.44-2.01c-1.076-4.803-1.926-8.597,1.179-13.687  c3.914-6.416,9.057-13.684,17.53-18.947c0.543-0.337,1.257-0.171,1.594,0.372C75.301,34.734,75.134,35.448,74.591,35.785z" fill="#000000"></path></svg>