<svg height='300px' width='300px'  fill="#495057" xmlns:dc="http://purl.org/dc/elements/1.1/" xmlns:cc="http://creativecommons.org/ns#" xmlns:rdf="http://www.w3.org/1999/02/22-rdf-syntax-ns#" xmlns:svg="http://www.w3.org/2000/svg" xmlns="http://www.w3.org/2000/svg" xmlns:sodipodi="http://sodipodi.sourceforge.net/DTD/sodipodi-0.dtd" xmlns:inkscape="http://www.inkscape.org/namespaces/inkscape" version="1.1" x="0px" y="0px" viewBox="0 0 739.76001 739.78693" enable-background="new 0 0 2000 2000" xml:space="preserve"><path style="fill:#FFFFFF" d="M 262.08998,0 C 244.805,0 230.833,13.972 230.833,31.257 l 0,199.636 -199.573,0 C 13.974,230.893 0,244.866 0,262.151 l 0,215.48495 c 0,17.285 13.974,31.257 31.26,31.257 l 199.573,0 0,199.64 c 0,17.285 13.972,31.254 31.25698,31.254 l 215.519,0 c 17.285,0 31.257,-13.969 31.257,-31.254 l 0,-199.64 199.637,0 c 17.285,0 31.257,-13.972 31.257,-31.257 l 0,-215.48495 c 0,-17.285 -13.972,-31.258 -31.257,-31.258 l -199.637,0 0,-199.636 C 508.86598,13.972 494.89398,0 477.60898,0 l -215.519,0 z m 31.29,62.512 153.002,0 0,199.639 c 0,17.285 13.972,31.257 31.257,31.257 l 199.638,0 0,152.97095 -199.638,0 c -17.285,0 -31.257,13.972 -31.257,31.257 l 0,199.64 -153.002,0 0,-199.64 c 0,-17.285 -13.972,-31.257 -31.257,-31.257 l -199.57898,0 0,-152.97095 199.57898,0 c 17.285,0 31.257,-13.972 31.257,-31.257 l 0,-199.639 z" fill="#000000"></path></svg>