<svg height='300px' width='300px'  fill="#495057" xmlns="http://www.w3.org/2000/svg" xmlns:xlink="http://www.w3.org/1999/xlink" version="1.1" x="0px" y="0px" viewBox="0 0 595.279 595" enable-background="new 0 0 595.279 595" xml:space="preserve"><g><path fill="#495057" d="M284.583,522.624c-9.762,0-20.021-1.486-30.492-4.418c-54.005-15.119-138.247-103.496-140.08-183.844   c-0.002-0.092-0.002-0.186-0.001-0.277c0.193-13.67-0.729-52.222-7.229-66.26c-4.161-8.988-14.462-32.92-20.245-60.964   c-6.492-31.481-5.393-58.181,3.264-79.357c8.752-21.408,25.059-36.745,48.468-45.584c16.752-6.326,32.785-9.534,47.651-9.534   c37.018,0,59.963,19.436,72.693,35.741c19.235,24.637,26.506,56.246,22.424,72.572c-3.644,14.572-2.484,18.581-2.209,19.248   c0.176,0.112,0.49,0.282,0.731,0.413c0.753,0.408,1.784,0.968,2.808,1.821c4.003,3.335,10.437,11.43,9.159,20.613   c-0.572,4.115-2.887,9.635-10.253,14.151l-0.142,3.966c-0.077,2.148-1.071,4.16-2.73,5.525l-2.833,2.33l0.835,0.648   c2.171,1.684,3.247,4.42,2.805,7.132c-0.442,2.711-2.332,4.964-4.925,5.872c-3.328,1.174-7.291,3.238-8.364,4.341   c-2.077,4.17-7.695,15.322-25.351,18.763c11.559,6.853,23.599,15.104,31.5,23.518c5.935-9.297,13.489-22.273,15.592-30.342   c1.142-4.381,1.911-10.642,2.725-17.271c2.115-17.215,4.112-33.476,13.789-39.588c0.072-0.045,0.146-0.09,0.219-0.133   c2.737-1.601,6.151-2.652,8.749-3.287c2.416-3.179,6.374-5.684,11.598-5.684c0.902,0,1.835,0.075,2.772,0.223   c3.217,0.509,5.427,1.619,6.943,2.938c2.437,0.033,4.762,0.778,6.735,2.159c2.756,1.928,4.347,4.531,5.05,7.261   c1.124,0.672,2.131,1.53,2.987,2.559c2.116,2.538,2.523,5.544,2.237,8.259c1.603,1.646,2.587,3.704,2.764,5.997   c0.411,5.291-3.129,12.492-8.419,17.12c-1.843,1.612-18.062,16.326-20.139,36.299c-0.318,3.063-0.552,6.707-0.799,10.564   c-0.691,10.812-1.544,24.141-4.951,37.091c4.86-6.297,9.917-11.739,14.862-15.271c0.177-0.127,0.36-0.246,0.548-0.356   c0.878-0.519,8.954-5.061,22.029-5.061c9.183,0,18.564,2.234,27.885,6.642c24.374,11.527,47.693,27.353,51.168,29.741   c1.965,0.979,7.058,3.064,11.469,3.064c3.608,0,5.491-1.254,6.713-4.472c2.056-5.41,3.359-11.201,4.509-16.311   c2.54-11.282,5.418-24.07,17.809-24.501c0.287-0.01,0.562-0.015,0.832-0.015c6.683,0,10.284,2.897,12.128,5.329   c0.731,0.964,1.275,1.963,1.674,2.957c2.008,0.44,4.043,1.204,6.085,2.285c4.824,2.555,9.175,8.902,11.354,16.565   c2.794,9.821,1.656,19.801-3.203,28.101c-0.68,1.138-16.052,26.662-33.67,37.531c-5.951,3.673-11.403,5.458-16.667,5.458   c-8.026,0-13.383-4.207-16.928-6.99c-0.959-0.753-1.864-1.465-2.513-1.846l-0.096-0.057c-3.961-2.33-9.853-5.795-19.115-7.532   c4.768,6.753,12.098,15.01,22.119,20.49c13.159,7.195,20.41,8.118,25.257,8.118c2.773,0,5.419-0.334,8.221-0.688   c1.367-0.172,2.741-0.345,4.149-0.486c4.451-0.446,7.488-0.997,9.929-1.438c3.013-0.546,5.596-1.008,8.646-0.885   c2.383,0.097,4.626,0.73,6.61,1.854c1.796,0.324,3.41,0.971,4.786,1.911c4.761,1.056,8.699,4.228,10.466,8.622   c1.924,4.786,0.898,9.98-2.677,13.558c-4.487,4.485-18.806,9.181-26.941,11.58c-0.095,0.028-0.189,0.054-0.284,0.078   c-3.749,1.062-7.762,1.802-12.259,2.262c-8.208,0.842-12.231,6.272-14.894,9.866c-0.597,0.807-1.112,1.503-1.67,2.141   c-1.787,2.043-13.563,12.433-26.348,12.433c-8.917,0-16.25-5.011-20.647-14.108c-3.06-6.332-5.132-11.214-6.797-15.137   c-3.829-9.024-4.69-10.812-9.127-13.605c-4.838-3.047-11.729-7.944-18.016-14.443c-1.886,15.806-6.15,36.507-15.796,50.136   C350.447,496.371,325.726,522.624,284.583,522.624z M129.011,334.154c1.757,72.887,80.524,156.001,129.125,169.606   c9.155,2.563,18.053,3.863,26.448,3.863c32.667,0,53.212-19.342,64.695-35.566c14.333-20.251,14.532-63.386,14.532-63.819   c0.003-3.625,2.598-6.73,6.165-7.376c3.573-0.645,7.085,1.354,8.357,4.746c4.867,12.983,19.101,23.018,24.994,26.729   c8.555,5.388,10.959,11.053,14.942,20.438c1.601,3.773,3.594,8.469,6.494,14.47c2.4,4.966,4.957,5.636,7.142,5.636   c6.018,0,13.688-5.863,15.104-7.362c0.11-0.127,0.526-0.688,0.86-1.139c3.179-4.292,10.624-14.344,25.419-15.86   c3.693-0.378,6.921-0.974,9.87-1.821c0.055-0.016,0.11-0.031,0.166-0.046c5.95-1.765,12.104-3.946,16.167-5.666   c-0.421-0.238-0.819-0.518-1.188-0.835c-1.421-0.146-2.773-0.697-3.896-1.59c-0.108-0.004-0.201-0.005-0.293-0.005   c-1.306,0-2.765,0.264-4.973,0.664c-2.559,0.463-6.062,1.098-11.104,1.604c-1.28,0.128-2.528,0.286-3.771,0.443   c-3.138,0.396-6.382,0.805-10.098,0.805c-9.851,0-19.859-3.07-32.454-9.958c-24.146-13.203-35.024-38.213-35.476-39.271   c-0.979-2.296-0.753-4.928,0.604-7.021s3.667-3.376,6.162-3.42c21.766-0.397,34.463,7.109,40.507,10.664l0.096,0.057   c1.517,0.893,2.867,1.953,4.173,2.979c2.99,2.348,4.96,3.787,7.663,3.787c2.367,0,5.325-1.085,8.791-3.224   c14.481-8.934,28.496-32.17,28.636-32.403c5.927-10.124,0.16-22.135-2.342-23.818c-1.735-0.915-2.801-0.945-3.104-0.943   c-2.584,1.004-5.574,0.681-7.672-1.166c-1.766-1.555-2.712-3.679-2.592-5.891c-1.262,2.421-2.535,8.079-3.425,12.028   c-1.259,5.597-2.687,11.939-5.12,18.343c-3.465,9.122-10.828,14.146-20.735,14.146c-9.305,0-17.938-4.504-18.892-5.018   c-0.248-0.134-0.49-0.282-0.722-0.442c-0.244-0.17-24.724-17.099-49.436-28.785c-7.3-3.452-14.524-5.202-21.473-5.202   c-7.893,0-13.063,2.315-14.229,2.893c-14.529,10.77-33.704,47.452-39.916,60.793c-1.352,2.904-4.398,4.622-7.586,4.293   c-3.186-0.337-5.807-2.659-6.523-5.782c-2.182-9.512-7.133-19.502-7.183-19.602c-1.74-3.489-0.518-7.733,2.813-9.759   c21.846-13.284,23.766-43.288,25.167-65.196c0.256-4.01,0.499-7.797,0.848-11.157c2.613-25.135,21.436-42.759,25.182-46.037   c0.843-0.737,1.507-1.547,2.014-2.31c-0.856-0.678-1.566-1.543-2.065-2.548c-0.792-1.596-0.981-3.403-0.571-5.098   c-0.987-0.43-1.87-1.081-2.559-1.965c-0.773-0.995-1.295-2.083-1.527-3.211c-2.671,0.915-5.725,0.212-7.814-1.981   c-0.09-0.095-0.177-0.191-0.261-0.289c-1.072,0.997-2.434,1.68-3.939,1.917c-1.945,0.313-5.372,1.161-7.084,2.09   c-0.336,0.267-2,1.881-3.681,8.7c-1.427,5.788-2.313,13.008-3.172,19.992c-0.877,7.137-1.705,13.879-3.098,19.225   c-4.216,16.175-22.874,42.812-23.666,43.938c-1.535,2.182-4.113,3.388-6.77,3.157c-2.658-0.226-4.995-1.846-6.139-4.255   c-6.314-13.292-42.463-33.48-63.766-43.083c-3.55-1.601-5.286-5.652-3.994-9.326c1.292-3.673,5.177-5.748,8.951-4.774   c0.111,0.029,11.429,2.919,21.214,3.397c0.405,0.008,0.806,0.012,1.199,0.012c17.571,0,21.449-7.786,23.312-11.527l0.126-0.254   c1.121-2.24,3.09-4.182,5.335-5.814c-1.205-1.339-1.898-3.08-1.924-4.911c-0.033-2.28,0.974-4.45,2.734-5.899l7.472-6.146   l0.176-4.933c0.102-2.865,1.829-5.421,4.449-6.586c3.418-1.52,5.58-3.296,5.783-4.751c0.296-2.128-2.28-5.598-3.786-6.92   c-0.15-0.089-0.311-0.171-0.475-0.26c-9.659-5.237-11.264-15.125-5.923-36.485c2.668-10.673-2.81-38.075-19.695-59.703   c-10.675-13.673-29.901-29.972-60.87-29.972c-13.049,0-27.299,2.882-42.352,8.567c-19.353,7.308-32.771,19.833-39.882,37.228   c-19.062,46.627,10.574,115.093,16.708,128.344C129.422,281.024,129.092,328.124,129.011,334.154z"></path></g><g><path fill="#000000" d="M319.142,349.805c-1.842,0-3.687-0.674-5.134-2.033c-3.02-2.836-3.168-7.583-0.332-10.602   c1.314-1.399,32.911-34.483,96.271-53.843c99.081-30.274,98.259-92.801,88.949-127.377c-1.077-4,1.293-8.115,5.292-9.192   c4.001-1.077,8.115,1.292,9.192,5.292c8.178,30.374,5.151,59.125-8.751,83.145c-16.278,28.123-46.659,49.143-90.3,62.478   c-59.582,18.205-89.427,49.453-89.721,49.767C323.133,349.011,321.14,349.805,319.142,349.805z"></path></g></svg>