<?xml version="1.0" encoding="utf-8"?>
<!-- Generator: Adobe Illustrator 23.0.1, SVG Export Plug-In . SVG Version: 6.00 Build 0)  -->
<svg version="1.1" id="Calque_1" xmlns="http://www.w3.org/2000/svg" xmlns:xlink="http://www.w3.org/1999/xlink" x="0px" y="0px"
	 viewBox="0 0 300 300" style="enable-background:new 0 0 300 300;" xml:space="preserve">
<style type="text/css">
	.st0{fill:#495057;}
</style>
<g>
	<path class="st0" d="M188.3,122.3c-0.5-22.6,13.9-25.4,14.6-25.6c2.4-0.4,4.1-2.7,3.7-5.1c-0.4-2.5-2.7-4.2-5.1-3.8
		c-0.2,0-22.9,3.8-22.2,34.7c0.6,26.3-5.9,48.6-19.4,66.3c-6.9,9-11.4,18.3-14.2,28c-2.8-9.7-7.3-18.9-14.2-28
		c-13.5-17.6-20-39.9-19.4-66.3c0.7-30.9-22-34.6-22.2-34.7c-2.4-0.4-4.7,1.3-5.1,3.7c-0.4,2.4,1.3,4.7,3.7,5.2
		c0.6,0.1,15.1,2.9,14.6,25.6c-0.7,28.4,6.5,52.6,21.2,71.9c14,18.3,16.8,37.9,16.8,61.6c0,2.5,2,4.5,4.5,4.5s4.5-2,4.5-4.5
		c0-23.7,2.9-43.3,16.8-61.6C181.8,174.9,189,150.7,188.3,122.3z"/>
	<path class="st0" d="M270.1,68c-15.9-17-44.1-28.2-70.9-4.1c-10.8,9.7-21.6,14.4-53.4,14.4c-31.8,0-42.6-4.6-53.4-14.4
		C65.5,39.7,37.4,51,21.4,68c-5.9,6.3-11.1,18-9.2,30c1,6.6,4.6,15.7,16,22.1c6.5,3.6,7.6,6.8,9.2,11.6c1.8,5.2,3.9,11.6,12.9,19
		c7.7,6.4,14.4,6,18.7,4.6c3.5-1.2,6.3-3.3,8.5-5.9c3.2,1.1,9.3,4.6,11.5,16.1c0,0,0,0,0,0c2.5,14.7,6.4,27.8,17.2,39.1
		c18.6,19.5,18.6,39.4,18.6,51.4c0,2.5,2,4.5,4.5,4.5s4.5-2,4.5-4.5c0-12.4,0-35.5-21-57.6c-9.2-9.6-12.6-21-14.9-34.6c0,0,0,0,0,0
		c0,0,0,0,0,0c-0.7-4.5-1.4-9.3-2-14.3c-1.2-9.5-2.6-20.2-5.3-31.8c-5-21.6-17.4-32.2-27-37.2c-6.2-3.3-13.5-3.1-19.5,0.5
		c-6,3.6-9.6,9.8-9.7,17.1c0,0,0,0.3,0,0.3c0,18.9,11.4,19.9,18.9,20.6c1.8,0.2,3.5,0.3,5,0.6c3.7,0.8,8.9,5.1,12.2,10.4
		c2.6,4.1,3.1,7.2,2.8,8.6c-0.3,1.1-0.8,2.3-1.5,3.5c0,0.1-0.1,0.1-0.1,0.2c-1.3,2-3.2,3.7-5.5,4.5c-3.1,1-6.5,0-10.1-3
		c-7-5.8-8.5-10.3-10.1-15c-1.9-5.5-3.8-11.2-13.4-16.5c-6.6-3.7-10.5-8.9-11.5-15.6c-1.4-8.9,2.6-17.8,6.9-22.4
		C32.8,69,57.9,45,86.4,70.6c14,12.6,28.5,16.7,59.4,16.7c31,0,45.4-4,59.4-16.7c28.4-25.6,53.6-1.5,58.4,3.5
		c4.3,4.6,8.3,13.5,6.9,22.4c-1,6.7-4.9,11.9-11.5,15.6c-9.6,5.3-11.5,11-13.4,16.5c-1.6,4.7-3.1,9.2-10.1,15c-3.6,3-7,4-10.1,3
		c-3.7-1.2-6.4-5-7.1-8.2c-0.3-1.4,0.2-4.5,2.8-8.6c3.3-5.2,8.5-9.6,12.2-10.4c1.5-0.3,3.2-0.5,5-0.6c7.5-0.7,18.9-1.7,18.9-20.6
		l0-0.6c-0.1-6.9-3.7-13.2-9.7-16.8c-6-3.6-13.3-3.8-19.5-0.5c-9.5,5-22,15.6-27,37.2c-2.7,11.6-4.1,22.3-5.3,31.8
		c-2.6,20.2-4.7,36.1-16.9,48.9c-21,22.1-21,45.2-21,57.6c0,2.5,2,4.5,4.5,4.5s4.5-2,4.5-4.5c0-11.9,0-31.9,18.6-51.4
		c10.2-10.7,14.3-23,16.8-36.7c0,0,0,0,0-0.1c1.8-11.6,9.5-15.6,13.3-16.8c1.9,1.9,4.3,3.4,7,4.3c4.3,1.4,11,1.8,18.7-4.6
		c9-7.5,11.2-13.9,12.9-19c1.6-4.8,2.7-7.9,9.2-11.6c11.4-6.3,15-15.5,16-22.1C281.2,86,276.1,74.3,270.1,68z M60.2,110.7
		c-2.1-0.4-4.1-0.6-6-0.8c-7.5-0.7-10.7-0.9-10.7-11.6l0-0.5c0-3.8,2-7.2,5.3-9.1c3.3-2,7.3-2.1,10.7-0.3
		c7.9,4.1,18.2,12.9,22.4,31.2c2,8.5,3.2,16.4,4.2,24c-1.4-1-2.8-1.7-4.1-2.3c0.1-0.3,0.2-0.5,0.2-0.8c1.4-5.8-1.9-12.2-4-15.5
		C74.6,119.4,67.7,112.2,60.2,110.7z M205.2,146c1.1-8.4,2.4-17,4.5-26.4c4.2-18.3,14.5-27.1,22.4-31.2c3.4-1.8,7.4-1.7,10.7,0.3
		c3.3,1.9,5.2,5.4,5.3,9.1l0,0.5c0,10.7-3.1,10.9-10.7,11.6c-2,0.2-4,0.4-6,0.8c-7.5,1.6-14.4,8.7-18,14.4c-2.1,3.3-5.4,9.7-4,15.5
		c0.2,0.8,0.5,1.7,0.9,2.6C208.6,143.9,206.9,144.8,205.2,146z"/>
</g>
</svg>
