<svg height='300px' width='300px'  fill="#000000" xmlns="http://www.w3.org/2000/svg" xmlns:xlink="http://www.w3.org/1999/xlink" xml:space="preserve" version="1.1" style="shape-rendering:geometricPrecision;text-rendering:geometricPrecision;image-rendering:optimizeQuality;" viewBox="0 0 847 847" x="0px" y="0px" fill-rule="evenodd" clip-rule="evenodd"><defs><style type="text/css">
   
    .fil0 {fill:#495057}
   
  </style></defs><g><path class="fil0" d="M568 278c87,0 174,0 261,0 0,97 0,194 0,290 -87,0 -174,0 -261,0 0,87 0,174 0,261 -96,0 -193,0 -290,0 0,-87 0,-174 0,-261 -86,0 -173,0 -260,0 0,-96 0,-193 0,-290 87,0 174,0 260,0 0,-86 0,-173 0,-260 97,0 194,0 290,0 0,87 0,174 0,260zm-253 -224c72,0 144,0 217,0 0,87 0,174 0,261 87,0 173,0 260,0 0,72 0,144 0,217 -87,0 -173,0 -260,0 0,87 0,173 0,260 -73,0 -145,0 -217,0 0,-87 0,-173 0,-260 -87,0 -174,0 -261,0 0,-73 0,-145 0,-217 87,0 174,0 261,0 0,-87 0,-174 0,-261z"></path></g></svg>