<?xml version="1.0" encoding="utf-8"?>
<!-- Generator: Adobe Illustrator 23.0.1, SVG Export Plug-In . SVG Version: 6.00 Build 0)  -->
<svg version="1.1" id="Calque_1" xmlns="http://www.w3.org/2000/svg" xmlns:xlink="http://www.w3.org/1999/xlink" x="0px" y="0px"
	 viewBox="0 0 100 100" style="enable-background:new 0 0 100 100;" xml:space="preserve">
<path d="M69.6,55.9c-1.4-0.8-2.3-2.4-2.3-4c0-6.8-1.6-28-9.8-36.2c-2.2-2.2-4.7-3.4-7.5-3.4s-5.3,1.1-7.5,3.4
	c-8.1,8.2-9.8,29.4-9.8,36.2c0,1.7-0.9,3.2-2.3,4c-4.8,2.7-12.8,8.8-12.8,18.8c0,3.1,1.1,5.6,3.4,7.4c3,2.4,7.5,3,11.6,3
	c3.7,0,7-0.5,8.6-0.8c2.3,2.9,5.8,3.3,8.8,3.3c3.8,0,6.8-1.2,8.7-3.3c1.5,0.3,5,0.9,8.7,0.9c4.1,0,8.6-0.7,11.6-3
	c2.2-1.8,3.4-4.3,3.4-7.4C82.4,64.8,74.4,58.7,69.6,55.9z M77.2,79.8c-4.2,3.4-13,2.4-16.8,1.8c0-0.1,0.1-0.2,0.2-0.4
	c0.1-0.2,0.1-0.4,0.2-0.6c3.5,0.2,11,0.4,13.2-2.5c0.7-0.9,0.9-2.1,0.5-3.2c-0.7-2-2.7-3.3-5.3-3.3c0,0,0,0,0,0
	c-4.1,0-9.6,3-11.5,8.6c-1,2.9-3.6,4.4-7.7,4.4c-4.5,0-6.6-1.2-7.7-4.4c-1.9-5.6-7.3-8.6-11.5-8.6c0,0,0,0,0,0
	c-2.6,0-4.6,1.2-5.3,3.3c-0.4,1.2-0.2,2.3,0.5,3.2c2.2,2.8,9.7,2.7,13.2,2.5c0.1,0.2,0.2,0.4,0.2,0.6c0,0.1,0.1,0.2,0.1,0.4
	c-3.8,0.6-12.6,1.6-16.8-1.8c-1.5-1.2-2.2-2.9-2.2-5.1c0-8.5,7.1-13.8,11.3-16.2c2.4-1.4,3.8-3.9,3.8-6.7c-0.1-8.1,2-27.2,8.9-34.1
	c1.7-1.7,3.4-2.5,5.4-2.5s3.7,0.8,5.4,2.5c6.9,6.9,9,26,8.9,34.1c0,2.7,1.4,5.3,3.8,6.7c4.2,2.4,11.3,7.7,11.3,16.2
	C79.4,77,78.7,78.6,77.2,79.8z M62.7,77.7c1.9-2,4.4-3.1,6.5-3.1c0,0,0,0,0,0c0.8,0,2.1,0.2,2.5,1.2c0.1,0.3,0,0.4,0,0.4
	C70.8,77.4,66.7,77.8,62.7,77.7z M37.3,77.7c-4.1,0.1-8.1-0.4-8.9-1.4c0-0.1-0.1-0.1,0-0.4c0.4-1.1,1.7-1.2,2.5-1.2c0,0,0,0,0,0
	C33,74.7,35.5,75.8,37.3,77.7z"/>
</svg>
