<?xml version="1.0" encoding="utf-8"?>
<!-- Generator: Adobe Illustrator 23.0.1, SVG Export Plug-In . SVG Version: 6.00 Build 0)  -->
<svg version="1.1" id="Calque_1" xmlns="http://www.w3.org/2000/svg" xmlns:xlink="http://www.w3.org/1999/xlink" x="0px" y="0px"
	 viewBox="0 0 300 300" style="enable-background:new 0 0 300 300;" xml:space="preserve">
<style type="text/css">
	.st0{fill:#495057;}
</style>
<g>
	<path class="st0" d="M269.6,140.7c-0.5-0.7-12.4-18.2-32.4-35.9c-26.8-23.7-55.4-36.2-82.7-36.2c-52.7,0-102.9,55-122.1,78.6
		c-5.7,7-4.8,17.2,2.1,23.2c5.9,5.2,14.8,5.5,21.1,0.7c0.9-0.7,2.1-1,3.3-0.8c1.2,0.2,2.2,0.8,2.9,1.7
		c10.3,13.9,40.1,46.1,94.2,46.1c69.6,0,95.3-50.4,96.3-52.5c1.1-2.2,0.2-4.9-2-6c-2.2-1.1-4.9-0.2-6,2c-0.1,0.1-6.1,12.1-20,23.9
		c-18.5,15.7-41.5,23.7-68.3,23.7c-50,0-77.4-29.7-86.9-42.5c-2.1-2.9-5.3-4.8-8.8-5.3c-3.5-0.5-7.1,0.4-10,2.6s-7,2-9.7-0.4
		c-3.2-2.8-3.6-7.5-1-10.7c18.3-22.6,66.2-75.3,115.1-75.3c31.6,0,59.1,18.4,76.6,33.8c19.2,17,30.9,34.2,31,34.3
		c1.4,2.1,4.2,2.6,6.2,1.2C270.5,145.6,271,142.8,269.6,140.7z"/>
	<path class="st0" d="M234,146c1.4,2,4.2,2.6,6.3,1.2c2.1-1.4,2.6-4.2,1.2-6.3c-1.4-2.1-35.7-51.4-85.4-51.5c0,0,0,0,0,0
		c0,0,0,0,0,0c0,0,0,0,0,0c-49.6,0-88.3,49.2-89.9,51.2c-1.5,2-1.2,4.8,0.8,6.3c0.8,0.6,1.8,0.9,2.8,0.9c1.3,0,2.7-0.6,3.6-1.7
		c0.2-0.3,16.5-20.9,40.4-34.9c-6.2,8.6-9.8,19.1-9.8,30.4c0,28.8,23.4,52.2,52.2,52.2c28.8,0,52.2-23.4,52.2-52.2
		c0-10.7-3.2-20.6-8.7-28.8C220.6,126.7,233.8,145.7,234,146z M199.2,141.7c0,23.8-19.4,43.2-43.2,43.2c-23.8,0-43.2-19.4-43.2-43.2
		c0-23.8,19.4-43.2,43.2-43.2c0,0,0,0,0,0C179.8,98.5,199.2,117.8,199.2,141.7z"/>
	<path class="st0" d="M130.6,141.7c0,14,11.4,25.4,25.4,25.4s25.4-11.4,25.4-25.4S170,116.3,156,116.3S130.6,127.7,130.6,141.7z
		 M172.4,141.7c0,9-7.4,16.4-16.4,16.4s-16.4-7.4-16.4-16.4s7.4-16.4,16.4-16.4S172.4,132.6,172.4,141.7z"/>
</g>
</svg>
