<svg height='300px' width='300px'  fill="#495057" xmlns="http://www.w3.org/2000/svg" xmlns:xlink="http://www.w3.org/1999/xlink" version="1.1" x="0px" y="0px" viewBox="0 0 100 100" style="enable-background:new 0 0 100 100;" xml:space="preserve"><g><path d="M51.5,15.6040039c-16.7148438,0-21.8515625,12.9594727-21.9013672,13.090332   c-0.2949219,0.7724609,0.0917969,1.6352539,0.8632812,1.9321289c0.7700195,0.2963867,1.6381836-0.0888672,1.9379883-0.8583984   C32.5771484,29.3125,36.909668,18.6040039,51.5,18.6040039c15.0170898,0,19.875,14.4008789,19.875,21.375   c0,9.2553711-8.6298828,18.0537109-11.2749023,20.5297852c-6.2631836,5.8632812-8.1708984,10.5644531-9.5878906,14.8769531   c-1.1245117,3.4238281-4.8417969,9.2182617-11.637207,9.2182617c-6.6000977,0-10.25-6.7998047-10.25-11.5   c0-0.8286133-0.6713867-1.5-1.5-1.5s-1.5,0.6713867-1.5,1.5c0,7.0024414,5.3242188,14.5,13.25,14.5   c7.4472656,0,12.6425781-5.6660156,14.487793-11.2817383c1.3491211-4.1074219,3.0366211-8.2397461,8.7871094-13.6230469   C65.0180664,60.0141602,74.375,50.4414062,74.375,39.9790039C74.375,32.0258789,68.7836914,15.6040039,51.5,15.6040039z"></path><path d="M34.6699219,63.2583008c0.7207031-0.3881836,0.9980469-1.2841797,0.6196289-2.0126953   c-0.3818359-0.7348633-1.2861328-1.0205078-2.0229492-0.6391602C32.1928711,61.1650391,30.375,62.8984375,30.375,65.8540039   c0,3.6796875,2.7412109,6.25,6.6665039,6.25c2.2612305,0,5.2729492-1.1606445,6.7807617-6.6889648   c0.390625-1.4331055,1.4404297-3.4794922,6.0209961-4.6948242c4.934082-1.3085938,8.9482422-6.4077148,8.9482422-11.3662109   c0-6.6035156-2.3950195-11.5864258-6.7431641-14.0302734c-3.473999-1.9517212-8.0001831-2.0817871-12.1326294-0.4754028   c1.1849976-3.9589844,5.1862183-6.3278198,11.0427856-6.3278198c7.9589844,0,9.75,7.5292969,9.75,10.1669922   c0,0.8286133,0.6713867,1.5,1.5,1.5s1.5-0.6713867,1.5-1.5c0-4.2958984-3.1166992-13.1669922-12.75-13.1669922   c-10.5866699,0-14.3748779,6.3532715-14.4133301,11.8319092c-0.0006714,0.0107422-0.0009766,0.0213013-0.0013428,0.0320435   c-0.000061,0.0175171-0.0023193,0.0355225-0.0023193,0.0530396c0,6.2163086,3.7783203,10.0664062,3.9394531,10.2270508   c0.5024414,0.503418,1.2875977,0.5830078,1.8823242,0.1943359c0.65625-0.4306641,1.362793-0.4970703,1.9404297-0.1850586   c0.6279297,0.3393555,0.987793,1.0424805,0.987793,1.9301758c0,0.6396484-0.2226562,0.8554688-0.2958984,0.9267578   c-0.3657227,0.3540039-1.078125,0.4204102-1.3046875,0.4082031c-0.8183594-0.0415039-1.5209961,0.5961914-1.5639648,1.4199219   c-0.043457,0.8271484,0.5917969,1.5332031,1.4194336,1.5766602c0.0283203,0.0014648,0.0869141,0.0039062,0.1704102,0.0039062   c0.5454102,0,2.152832-0.1025391,3.3374023-1.2265625c0.5644531-0.5356445,1.2373047-1.5097656,1.2373047-3.1088867   c0-1.9946289-0.9575195-3.7026367-2.5615234-4.5693359c-1.1660156-0.6303711-2.5112305-0.7211914-3.7773438-0.2905273   c-0.8224487-1.1279297-2.140625-3.3959961-2.3649902-6.4318237c3.6709595-1.9338989,7.897522-2.1115723,10.9909668-0.3728638   c3.4101562,1.9165039,5.2128906,5.8632812,5.2128906,11.4145508c0,3.5610352-3.1391602,7.5175781-6.7177734,8.4667969   c-4.4990234,1.1938477-7.2397461,3.4833984-8.1459961,6.8051758c-0.8100586,2.9711914-2.1176758,4.4780273-3.8862305,4.4780273   c-2.2617188,0-3.6665039-1.2451172-3.6665039-3.25C33.375,64.0595703,34.5224609,63.3427734,34.6699219,63.2583008z"></path></g></svg>
