<?xml version="1.0" encoding="utf-8"?>
<!-- Generator: Adobe Illustrator 23.0.1, SVG Export Plug-In . SVG Version: 6.00 Build 0)  -->
<svg version="1.1" id="Calque_1" xmlns="http://www.w3.org/2000/svg" xmlns:xlink="http://www.w3.org/1999/xlink" x="0px" y="0px"
	 viewBox="0 0 300 300" style="enable-background:new 0 0 300 300;" xml:space="preserve">
<style type="text/css">
	.st0{fill:#495057;}
</style>
<g>
	<path class="st0" d="M218.5,187.5c0-1.1,0-2.1,0-2.9V89.2c0-9.7-7.9-17.5-17.5-17.5c-3.1,0-6,0.8-8.5,2.2V62.3
		c0-9.7-7.9-17.5-17.5-17.5c-3.1,0-6,0.8-8.5,2.2v-6.7c0-9.7-7.9-17.5-17.5-17.5s-17.5,7.9-17.5,17.5v1.9c-2.5-1.4-5.4-2.2-8.5-2.2
		c-9.7,0-17.5,7.9-17.5,17.5v82c0,3.9-1.6,7.7-4.4,10.4l-2.3,2.3l-20.9-21.5c-7.8-7.6-20.5-7.6-28.2,0.2c-3.8,3.8-5.9,8.9-5.9,14.3
		c0,5.4,2.2,10.4,6,14.2c0.1,0.1,0.2,0.2,0.3,0.3l8,6.5c7.3,7.3,9.9,16.4,12.7,28.6c8.7,37.5,25.9,50.1,38,54.2v24.4
		c0,2.5,2,4.5,4.5,4.5s4.5-2,4.5-4.5v-22.6c0.8,0.1,1.5,0.1,2.1,0.1c1.4,0,2.3-0.1,2.5-0.1c2.4-0.3,4.1-2.6,3.8-5
		c-0.3-2.4-2.6-4.2-5-3.9c-1.2,0.1-29.5,2.9-41.6-49.1c-3.1-13.3-6.2-24.1-15.3-33.1c-0.1-0.1-0.2-0.2-0.3-0.3l-8-6.5
		c-2-2.1-3.2-4.8-3.2-7.7c0-3,1.1-5.8,3.2-7.9c4.3-4.3,11.2-4.3,15.5-0.2l31.3,32.1c1.7,1.8,4.6,1.8,6.4,0.1
		c1.8-1.7,1.8-4.6,0.1-6.4l-4.1-4.2l2.3-2.2c4.5-4.4,7.2-10.6,7.2-16.9v-82c0-4.7,3.8-8.5,8.5-8.5c4.7,0,8.5,3.8,8.5,8.5v25v63.6
		c0,2.5,2,4.5,4.5,4.5s4.5-2,4.5-4.5V82.5v-25V40.3c0-4.7,3.8-8.5,8.5-8.5s8.5,3.8,8.5,8.5v22v3v80.8c0,2.5,2,4.5,4.5,4.5
		s4.5-2,4.5-4.5V65.3v-3c0-4.7,3.8-8.5,8.5-8.5c4.7,0,8.5,3.8,8.5,8.5v25c0,0.2,0,0.4,0.1,0.6c0,0.4-0.1,0.8-0.1,1.3v65.9
		c0,2.5,2,4.5,4.5,4.5s4.5-2,4.5-4.5V89.2c0-4.7,3.8-8.5,8.5-8.5s8.5,3.8,8.5,8.5v95.5c0,0.9,0,1.9,0,3c0.2,10.7,0.6,32.8-11.5,45.2
		c-5.8,5.9-14,8.9-24.5,8.9c-2.5,0-4.5,2-4.5,4.5s2,4.5,4.5,4.5c4,0,7.7-0.4,11.2-1.2v24.9c0,2.5,2,4.5,4.5,4.5s4.5-2,4.5-4.5v-27.8
		c4-1.9,7.6-4.3,10.6-7.5C219.2,224.1,218.7,199.4,218.5,187.5z"/>
	<path class="st0" d="M127.6,186.7c-2.1-1.4-4.9-0.8-6.2,1.2c-1.4,2.1-0.8,4.9,1.2,6.2c0.1,0.1,14.1,9.8,14.1,32.3
		c0,2.5,2,4.5,4.5,4.5s4.5-2,4.5-4.5C145.7,199.2,128.3,187.2,127.6,186.7z"/>
</g>
</svg>
