<?xml version="1.0" encoding="utf-8"?>
<!-- Generator: Adobe Illustrator 23.0.1, SVG Export Plug-In . SVG Version: 6.00 Build 0)  -->
<svg version="1.1" id="Calque_1" xmlns="http://www.w3.org/2000/svg" xmlns:xlink="http://www.w3.org/1999/xlink" x="0px" y="0px"
	 viewBox="0 0 100 100" style="enable-background:new 0 0 100 100;" xml:space="preserve">
<g>
	<path d="M90.4,20.5c0.3-3-1.4-5.6-2.2-6.7c0.2-2.2-0.3-4-1.5-5.5c-1.9-2.3-4.8-2.8-5.8-3c-2.4-1.3-4.8-1.6-7-1c-3,0.8-5,3.1-6,4.4
		c-2.4-0.6-4.4-0.3-6.1,0.7c-1.4,0.9-2.2,2.3-2.7,3.4c-1.1-0.3-2.1-0.3-3,0c-0.8,0.3-1.5,0.8-1.9,1.3c-0.5-0.4-1.1-0.7-1.7-0.9
		c-1.3-0.4-2.7-0.2-3.7,0.1c-0.5-1-1.3-1.8-2.3-2.4c-1.5-0.8-3.1-0.9-4.3-0.8c-0.6-1.4-1.6-2.4-2.9-3.1c-2.1-1.1-4.4-1-5.6-0.8
		c-2.1-1.8-4.3-2.7-6.6-2.6c-3.1,0.1-5.3,1.9-6.2,2.8c-2.5,0.4-4.2,1.5-5.2,3.2c-1.1,1.8-1,3.8-0.7,5.1c-1.5,0.8-2.5,1.9-3,3.3
		c-0.8,2.1-0.4,4.2,0,5.4c-3,3.4-2.2,7.5-1,9.9c-2.4,3.4-1.3,7.5-0.1,9.7c-0.6,2.2-2.1,8.8,1.1,13.3c2,2.9,5.5,4.3,10.2,4.3
		c4.9,0,8.4-1.5,10.5-4.4c3.1-4.4,1.7-10.5,1.1-12.5c2.1-4.4,1.1-7.5-0.2-9.2c0.6-1,0.8-2,0.9-3.1c2.8,1.9,5.9,1.9,8,1.3
		c1.4,1.6,3,2.5,4.8,2.8c2.3,0.3,4.4-0.5,5.5-1.2c1.9,1.3,3.8,1.6,5.5,1.2c1.6-0.5,2.7-1.6,3.3-2.5c2.1,0.7,3.7,0.3,5-0.4
		c0.3,0.6,0.6,1.2,0.9,1.7c-0.9,0.9-1.4,1.9-1.6,3.1c-0.3,2.1,0.5,4,1.1,5.1c-1.8,2.9-1,5.6,0.1,7.4c-0.5,0.4-0.9,1-1.1,1.6
		c-0.4,1-0.4,2-0.3,2.9c-0.3,0.1-0.5,0.2-0.7,0.4c-0.3,0.2-0.6,0.5-0.8,0.8c-1.2-0.8-2.5-1.2-3.9-1.1c-2.4,0-4.4,1.3-5.5,2.1
		c-2.6-1.2-7.1-1.6-11.2,3c-5,5.7-2.8,12.1-2.1,13.8c-0.2,2.9-1,16.2,3.3,20.9c1.1,1.2,2.4,1.8,3.9,1.8c1.5,0,2.9-0.6,4.1-1.8
		c3.6-3.8,4.3-12.8,4.4-17.6c3.3,1.5,6.1,0.5,7.9-0.8c2.9,1.7,5.6,2.3,8.1,1.6c2.8-0.8,4.5-2.9,5.1-4c6.5-2,8.1-6.6,8.1-9.4
		c4.1-5.1,2.3-10.2,0.2-12.9c1.8-3.5,1-6.7-0.1-8.6c2.2-3.4,1.3-6.3,0.1-7.9c2.3-3.3,1.8-6.7,0.8-8.9C89.2,24.5,90.2,22.6,90.4,20.5
		z M84.6,24.5c-0.7,0.5-0.8,1.4-0.3,2.1c0.1,0.2,2.6,3.8-0.7,7.4c-0.3,0.3-0.4,0.7-0.4,1.1c0,0.4,0.2,0.8,0.6,1.1
		c0.3,0.2,2.6,2.2-0.2,5.8c-0.4,0.6-0.4,1.3,0,1.9c0,0,2.6,3.1,0,6.9c-0.4,0.6-0.3,1.4,0.2,1.9c0.2,0.2,4.7,4.9,0,10.2
		c-0.3,0.3-0.4,0.8-0.4,1.2c0,0.2,0.5,5.1-6.4,7c-0.4,0.1-0.8,0.4-1,0.8c0,0-1.2,2.4-3.6,3c-1.9,0.5-4.1-0.1-6.5-1.8
		c-0.6-0.4-1.4-0.3-1.9,0.2c-0.1,0.1-3.1,3.3-7.2-0.3c-0.4-0.4-1.1-0.5-1.6-0.2c-0.5,0.3-0.9,0.8-0.9,1.4c0.1,3.9-0.3,14.9-3.6,18.2
		c-0.6,0.6-1.2,0.9-1.9,0.9c-0.7,0-1.2-0.3-1.7-0.8c-3.1-3.4-2.8-14.9-2.5-19c0-0.3,0-0.6-0.1-0.8c-0.1-0.2-2.9-6,1.5-10.9
		c1.9-2.2,3.8-2.8,5.3-2.8c1.6,0,2.8,0.7,3,0.8c0.6,0.4,1.4,0.3,1.9-0.2c0,0,1.9-2,4.2-2c0,0,0,0,0,0c1.2,0,2.3,0.5,3.4,1.7
		c0.4,0.4,1,0.6,1.6,0.4c0.6-0.2,0.9-0.7,1-1.3c0-0.2,0.2-0.8,0.4-0.9c0.1-0.1,0.4,0,0.5,0c0.6,0.1,1.1,0,1.5-0.5
		c0.4-0.4,0.5-1.1,0.2-1.6c-0.2-0.4-0.6-1.7-0.2-2.5c0.1-0.3,0.4-0.7,1.1-1c0.5-0.2,0.8-0.6,0.9-1.1c0.1-0.5-0.1-1-0.5-1.4
		c-0.5-0.4-2.8-2.8-0.4-5.6c0.4-0.5,0.5-1.3,0-1.9c-0.4-0.5-1.4-2.2-1.1-3.7c0.1-0.8,0.6-1.5,1.5-2.1c0.4-0.2,0.6-0.6,0.7-1.1
		c0.1-0.4-0.1-0.9-0.4-1.2c-0.8-0.9-1.9-2.8-1.6-3.6c0.3-0.7-0.1-1.6-0.8-1.9c-0.7-0.3-1.6-0.1-2,0.6c-0.2,0.4-1.6,2.6-4.8,1
		c-0.4-0.2-0.8-0.2-1.2-0.1c-0.4,0.2-0.7,0.5-0.9,0.9c0,0-0.7,1.7-2.1,2.1c-1.2,0.4-2.7-0.5-3.7-1.3c-0.5-0.4-1.3-0.4-1.8,0
		c0,0-2,1.5-4.2,1.2c-1.3-0.2-2.4-1-3.5-2.4c-0.4-0.6-1.2-0.8-1.8-0.5c-0.6,0.2-5.6,2.2-8.9-3.8c-0.4-0.7-1.3-1-2-0.6
		c-0.7,0.4-1,1.2-0.7,1.9c0,0,1.8,4.4-0.3,6.5c-0.3,0.3-0.5,0.8-0.4,1.2s0.3,0.9,0.7,1.1c0,0,2.8,1.8,0.1,6.8
		c-0.2,0.4-0.2,0.8-0.1,1.2c0.6,1.8,1.8,7.1-0.5,10.4c-1.5,2.1-4.2,3.1-8,3.1c-3.7,0-6.3-1-7.8-3.1C11.6,50.6,14,43.5,14,43.4
		c0.2-0.4,0.1-0.9-0.2-1.3c-0.1-0.2-2.8-4.4,0.1-7.5c0.5-0.5,0.5-1.3,0.1-1.9c-0.1-0.2-2.9-4.4,0.7-7.7c0.5-0.5,0.6-1.2,0.3-1.8
		c0,0-1.1-2.2-0.3-4c0.4-1,1.2-1.7,2.5-2.2c0.8-0.3,1.2-1.2,0.9-1.9c0,0-0.8-2.3,0.1-3.9c0.6-1,1.8-1.6,3.5-1.8
		c0.4,0,0.7-0.2,0.9-0.5c0,0,1.9-2.1,4.5-2.2c1.7-0.1,3.3,0.7,4.9,2.3c0.4,0.4,0.9,0.5,1.5,0.4c0,0,2.4-0.7,4.2,0.3
		c0.9,0.5,1.6,1.4,1.9,2.6c0.1,0.4,0.4,0.7,0.7,0.9c0.4,0.2,0.8,0.2,1.1,0.1c0,0,1.9-0.5,3.3,0.2c0.7,0.4,1.2,1.1,1.4,2.1
		c0.1,0.4,0.4,0.8,0.9,1s0.9,0.2,1.3-0.1c0,0,1.6-0.9,2.9-0.5c0.6,0.2,1,0.6,1.3,1.3c0.3,0.5,0.8,0.9,1.4,0.8c0.6,0,1.1-0.4,1.3-1
		c0,0,0.5-1.2,1.4-1.5c0.6-0.2,1.3,0,2.2,0.5c0.4,0.3,1,0.3,1.4,0.1c0.5-0.2,0.8-0.7,0.8-1.2c0,0,0.3-2.1,1.8-3.1
		c1.1-0.7,2.7-0.7,4.6-0.1c0.7,0.2,1.4-0.1,1.8-0.7c0.4-0.7,3.9-6.5,9.9-3.2c0.2,0.1,0.4,0.2,0.7,0.2c0,0,2.7,0.2,4.1,1.9
		c0.8,0.9,1,2.2,0.8,3.8c-0.1,0.5,0.1,0.9,0.4,1.2c0,0,2.1,2.3,1.9,5C87.3,21.8,86.3,23.3,84.6,24.5z"/>
	<path d="M23.9,35.7c0.3-0.4,0.3-1,0.1-1.5c0,0-1.5-3.1,0-6c0.4-0.7,0.1-1.6-0.7-2c-0.7-0.4-1.6-0.1-2,0.7c-1.6,3.3-0.9,6.4-0.3,7.9
		c-2.2,3.7-1.3,7.2-0.1,9.1c-1.5,3-0.2,6.6-0.1,6.7c0.2,0.6,0.8,1,1.4,1c0.2,0,0.4,0,0.5-0.1c0.8-0.3,1.2-1.1,0.9-1.9
		c0,0-1.1-3,0.3-4.9c0.4-0.6,0.4-1.3-0.1-1.9C23.8,42.7,21.2,39.6,23.9,35.7z"/>
	<path d="M70,17.6c-4.8-0.5-7.4,1.9-8.6,3.9c-3.8-0.7-6.4,0.6-7.8,1.6c-2.5-1.8-5.6-1.6-7.3-1.2c-2.3-3.5-6-3.9-8.4-3.5
		c-2.2-3.3-6.3-3.2-6.5-3.2c-0.8,0-1.5,0.7-1.4,1.5c0,0.8,0.7,1.5,1.5,1.4c0.1,0,3.1-0.1,4.3,2.5c0.3,0.7,1.1,1,1.8,0.8
		c0.5-0.2,4.7-1.4,6.6,2.8c0.3,0.7,1.1,1,1.9,0.8c0,0,4.1-1.4,6.4,1.1c0.3,0.3,0.7,0.5,1.1,0.5c0,0,0,0,0,0c0.4,0,0.8-0.2,1.1-0.5
		c0.1-0.1,2.5-2.7,7.1-1.3c0.4,0.1,0.8,0.1,1.2-0.1c0.4-0.2,0.6-0.5,0.7-0.9c0.1-0.4,1.2-3.6,5.9-3.1c0.8,0.1,1.6-0.5,1.6-1.3
		C71.5,18.4,70.9,17.7,70,17.6z"/>
	<path d="M77.7,35.4c-0.6-0.6-1.5-0.6-2.1,0c-1.2,1.3-2.9,4.5-0.7,8.1c-0.9,1.7-2.5,5.5-0.6,8.8c-0.8,1.5-2.2,4.6-1.8,7.2
		c-2.1,0.6-5.4,2-7.4,4.8c-1.8-0.5-5.3-1.3-8.2,0.1c-1.1-0.7-3.2-1.6-4.8-1c-0.8,0.3-1.2,1.1-0.9,1.9c0.3,0.8,1.2,1.2,1.9,0.9
		c0.4-0.1,1.8,0.4,2.8,1.1c0.5,0.3,1.2,0.4,1.7,0c2.3-1.5,6.2-0.4,7.5,0.1c0.2,0.1,0.4,0.1,0.6,0.1c0.6,0,1.1-0.3,1.3-0.8
		c1.8-3.7,7.6-4.8,7.7-4.8c0.5-0.1,0.9-0.4,1.1-0.9s0.1-1-0.2-1.5c-0.9-1.2,0.4-4.6,1.6-6.6c0.3-0.5,0.3-1.2-0.1-1.7
		c-2.1-2.8,0.7-7,0.7-7.1c0.4-0.5,0.4-1.2,0-1.8c-2.1-2.8-0.3-4.9-0.1-5.1C78.4,37,78.3,36,77.7,35.4z"/>
</g>
</svg>
