<svg height='300px' width='300px'  fill="#495057" xmlns="http://www.w3.org/2000/svg" xmlns:xlink="http://www.w3.org/1999/xlink" version="1.1" x="0px" y="0px" viewBox="0 0 100 100" enable-background="new 0 0 100 100" xml:space="preserve"><path d="M54.593,9.33c-17.418,0-31.589,14.171-31.589,31.589v1.913l-9.009,16.827c-0.249,0.465-0.235,1.027,0.036,1.479  c0.27,0.453,0.759,0.73,1.286,0.73h7.687v11.43c0,5.133,4.176,9.309,9.31,9.309h13.199v6.564c0,0.83,0.671,1.5,1.5,1.5  s1.5-0.67,1.5-1.5v-8.064c0-0.828-0.671-1.5-1.5-1.5H32.313c-3.479,0-6.31-2.83-6.31-6.309v-12.93c0-0.828-0.672-1.5-1.5-1.5h-6.682  l8.004-14.952c0.117-0.217,0.178-0.461,0.178-0.707v-2.29c0-15.765,12.824-28.589,28.589-28.589s28.589,12.824,28.589,28.589  c0,7.623-2.963,14.771-8.349,20.162c-0.392,0.273-0.641,0.727-0.641,1.229V89.09c0,0.828,0.671,1.5,1.5,1.5s1.5-0.672,1.5-1.5  V62.959c5.802-5.926,8.989-13.729,8.989-22.041C86.182,23.5,72.011,9.33,54.593,9.33z M55.943,22.503  c-10.879-0.998-19.275,7.123-20.43,19.741c-0.076,0.825,0.531,1.556,1.356,1.63c0.815,0.078,1.555-0.532,1.63-1.357  c1.01-11.03,7.903-17.869,17.17-17.027c4.109,0.377,7.784,2.164,10.35,5.033c2.587,2.895,3.812,6.674,3.448,10.641  c-0.286,3.147-1.782,5.995-4.21,8.018c-2.43,2.022-5.504,2.979-8.651,2.69c-2.439-0.223-4.646-1.383-6.212-3.264  c-1.566-1.882-2.305-4.262-2.082-6.701c0.365-3.979,3.884-7.043,7.677-6.698c3.022,0.276,5.126,2.422,4.894,4.989  c-0.213,2.296-2.386,3.441-3.803,3.34c-0.822-0.053-1.54,0.572-1.594,1.399c-0.053,0.827,0.573,1.54,1.4,1.595  c3.092,0.205,6.625-2.187,6.984-6.061c0.385-4.271-2.886-7.819-7.608-8.25c-5.419-0.499-10.423,3.813-10.937,9.412  c-0.297,3.237,0.684,6.396,2.764,8.893c2.078,2.498,5.006,4.037,8.243,4.332c0.462,0.043,0.921,0.064,1.379,0.064  c3.458,0,6.776-1.195,9.466-3.436c3.044-2.536,4.918-6.105,5.277-10.051c0.44-4.803-1.051-9.389-4.199-12.911  C65.184,25.086,60.811,22.948,55.943,22.503z"></path></svg>