<svg height='300px' width='300px'  fill="#495057" xmlns="http://www.w3.org/2000/svg" viewBox="0 0 66 66" x="0px" y="0px"><path d="M354.510508,582.660453 C354.335904,583.096963 353.281216,585.489542 352.928477,586.371391 C350.077889,593.497859 350.453387,592.502789 350.17137,594.053885 C350.05582,594.68941 350,595.317385 350,596 L350,602 C350,602.552285 349.552285,603 349,603 C348.447715,603 348,602.552285 348,602 L348,596 C348,595.19824 348.066463,594.450536 348.20363,593.696115 C348.523586,591.936356 348.109611,593.033391 351.071523,585.628609 C351.44144,584.703818 352.496127,582.31124 352.653555,581.917672 C353.665693,579.387326 354,576.796445 354,570 C354,569.447715 354.447715,569 355,569 C357.048128,569 358.690977,568.654137 359.968862,568.086188 C360.696215,567.76292 361.126829,567.458957 361.292893,567.292893 C361.683418,566.902369 362.316582,566.902369 362.707107,567.292893 C363.097631,567.683418 363.097631,568.316582 362.707107,568.707107 C362.373171,569.041043 361.741285,569.48708 360.781138,569.913812 C359.471572,570.495841 357.881619,570.875491 355.997493,570.974324 C355.963722,577.29654 355.583044,579.979114 354.510508,582.660453 Z M362.447214,548.105573 C362.941192,548.352562 363.141416,548.953235 362.894427,549.447214 C362.647438,549.941192 362.046765,550.141416 361.552786,549.894427 C361.492864,549.864466 361.356388,549.80261 361.149372,549.719186 C360.791904,549.575131 360.375552,549.429892 359.906375,549.29368 C356.667697,548.353418 353.047282,548.353418 349.393919,549.919145 C342.464953,552.888702 339,549.738745 339,543 L339,538 C339,537.447715 339.447715,537 340,537 C340.552285,537 341,537.447715 341,538 L341,543 C341,548.443074 343.166115,550.412269 348.606081,548.080855 C352.730496,546.313249 356.813785,546.313249 360.463995,547.372987 C361.386641,547.640852 362.06247,547.913201 362.447214,548.105573 Z M298.447214,549.894427 C297.953235,550.141416 297.352562,549.941192 297.105573,549.447214 C296.858584,548.953235 297.058808,548.352562 297.552786,548.105573 C297.93753,547.913201 298.613359,547.640852 299.536005,547.372987 C303.186215,546.313249 307.269504,546.313249 311.393919,548.080855 C316.833885,550.412269 319,548.443074 319,543 L319,538 C319,537.447715 319.447715,537 320,537 C320.552285,537 321,537.447715 321,538 L321,543 C321,549.738745 317.535047,552.888702 310.606081,549.919145 C306.952718,548.353418 303.332303,548.353418 300.093625,549.29368 C299.624448,549.429892 299.208096,549.575131 298.850628,549.719186 C298.643612,549.80261 298.507136,549.864466 298.447214,549.894427 Z M299.218862,569.913812 C298.258715,569.48708 297.626829,569.041043 297.292893,568.707107 C296.902369,568.316582 296.902369,567.683418 297.292893,567.292893 C297.683418,566.902369 298.316582,566.902369 298.707107,567.292893 C298.873171,567.458957 299.303785,567.76292 300.031138,568.086188 C301.309023,568.654137 302.951872,569 305,569 C305.552285,569 306,569.447715 306,570 C306,576.796445 306.334307,579.387326 307.346445,581.917672 C307.503873,582.31124 308.55856,584.703818 308.928477,585.628609 C311.890389,593.033391 311.476414,591.936356 311.79637,593.696115 C311.933537,594.450536 312,595.19824 312,596 L312,602 C312,602.552285 311.552285,603 311,603 C310.447715,603 310,602.552285 310,602 L310,596 C310,595.317385 309.94418,594.68941 309.82863,594.053885 C309.546613,592.502789 309.922111,593.497859 307.071523,586.371391 C306.718784,585.489542 305.664096,583.096963 305.489492,582.660453 C304.416956,579.979114 304.036278,577.29654 304.002507,570.974324 C302.118381,570.875491 300.528428,570.495841 299.218862,569.913812 Z M330,603 C329.171573,603 328.5,602.328427 328.5,601.5 C328.5,600.671573 329.171573,600 330,600 C330.828427,600 331.5,600.671573 331.5,601.5 C331.5,602.328427 330.828427,603 330,603 Z M342,578 C341.171573,578 340.5,577.328427 340.5,576.5 C340.5,575.671573 341.171573,575 342,575 C342.828427,575 343.5,575.671573 343.5,576.5 C343.5,577.328427 342.828427,578 342,578 Z M318,578 C317.171573,578 316.5,577.328427 316.5,576.5 C316.5,575.671573 317.171573,575 318,575 C318.828427,575 319.5,575.671573 319.5,576.5 C319.5,577.328427 318.828427,578 318,578 Z" transform="translate(-297 -537)"></path></svg>