<svg height='300px' width='300px'  fill="#495057" xmlns="http://www.w3.org/2000/svg" xmlns:xlink="http://www.w3.org/1999/xlink" version="1.1" x="0px" y="0px" viewBox="0 0 100 92.561" enable-background="new 0 0 100 92.561" xml:space="preserve"><g><path d="M10.249,0.945c-0.075-0.592-0.612-1.006-1.21-0.938c-0.593,0.075-1.013,0.617-0.938,1.21   c0.342,2.698,0.701,5.42,1.055,8.115c1.655,12.573,3.219,24.45,2.72,30.63c-0.616,7.627-2.862,13.479-5.239,19.674   C3.374,68.14,0,76.933,0,91.479c0,0.598,0.484,1.082,1.082,1.082s1.082-0.484,1.082-1.082c0-14.144,3.3-22.747,6.493-31.066   c2.434-6.345,4.735-12.338,5.376-20.275c0.517-6.41-1.061-18.397-2.732-31.087C10.948,6.358,10.59,3.64,10.249,0.945z"></path><path d="M93.364,59.639c-2.376-6.197-4.622-12.049-5.239-19.675c-0.497-6.173,1.061-18.028,2.713-30.576   c0.355-2.708,0.717-5.444,1.059-8.153c0.074-0.593-0.345-1.135-0.939-1.21c-0.586-0.064-1.133,0.342-1.209,0.938   c-0.342,2.707-0.702,5.439-1.057,8.143c-1.666,12.667-3.241,24.631-2.723,31.033c0.641,7.937,2.941,13.93,5.374,20.275   c3.192,8.319,6.493,16.922,6.493,31.066c0,0.598,0.484,1.082,1.082,1.082c0.598,0,1.082-0.484,1.082-1.082   C100,76.933,96.626,68.14,93.364,59.639z"></path><path d="M50.001,62.81c-0.598,0-1.082,0.484-1.082,1.082v2.429c0,0.598,0.484,1.082,1.082,1.082c0.597,0,1.081-0.484,1.081-1.082   v-2.429C51.082,63.295,50.598,62.81,50.001,62.81z"></path></g></svg>