<?xml version="1.0" encoding="UTF-8"?>
<svg width="1154px" height="842px" viewBox="0 0 1154 842" version="1.1" xmlns="http://www.w3.org/2000/svg" xmlns:xlink="http://www.w3.org/1999/xlink">
    <title>Slice 1</title>
    <!-- 00c7e6 and #ffa04d# -->
    <desc>Created with Sketch.</desc>
    <defs>
        <linearGradient x1="49.99502%" y1="100.003398%" x2="49.99502%" y2="0.000180167073%" id="linearGradient-1">
            <stop stop-color="#808080" stop-opacity="0.25" offset="0%"></stop>
            <stop stop-color="#808080" stop-opacity="0.12" offset="54%"></stop>
            <stop stop-color="#808080" stop-opacity="0.1" offset="100%"></stop>
        </linearGradient>
        <linearGradient x1="49.985199%" y1="100.000188%" x2="49.985199%" y2="0.00501389415%" id="linearGradient-2">
            <stop stop-color="#808080" stop-opacity="0.25" offset="0%"></stop>
            <stop stop-color="#808080" stop-opacity="0.12" offset="54%"></stop>
            <stop stop-color="#808080" stop-opacity="0.1" offset="100%"></stop>
        </linearGradient>
    </defs>
    <g id="Page-1" stroke="none" stroke-width="1" fill="none" fill-rule="evenodd">
        <g id="medicine">
            <ellipse id="Oval" fill="#99d1d4" opacity="0.1" cx="415.38" cy="825.65" rx="97.44" ry="15.65"></ellipse>
            <ellipse id="Oval" fill="#99d1d4" opacity="0.1" cx="945.05" cy="826.09" rx="121.59" ry="15.65"></ellipse>
            <path d="M61.84,397.2 L163.33,397.2 L163.33,535.53 L69.27,535.53 C69.02,536.95 68.78,538.38 68.52,539.81 L163.33,539.81 L163.33,651.37 C163.16,651.32 163.01,651.26 162.85,651.2 C160.17,650.14 157.51,649.02 154.85,647.82 L153.15,647.05 C150.483333,645.79 147.816667,644.456667 145.15,643.05 C144.22,642.56 143.29,642.05 142.37,641.53 C127.565828,633.237208 114.117017,622.72906 102.49,610.37 C102.15,610.04 101.83,609.69 101.49,609.37 C99.87,607.61 98.28,605.83 96.74,604.01 L95.04,602.01 C93.22,599.78 91.46,597.49 89.75,595.17 C89.5,594.83 89.26,594.49 89,594.17 C82.0454712,584.527281 76.2710063,574.086243 71.8,563.07 C71.66,562.74 71.54,562.38 71.41,562.07 C70.0366667,558.536667 68.82,554.97 67.76,551.37 C67.3,549.86 66.86,548.37 66.48,546.8 C66.34,546.34 66.22,545.89 66.11,545.44 C60.43,523.27 59.76,500.24 59.76,477.37 C59.76,474.7 59.76,472.02 59.76,469.37 C59.76,460.12 59.87,450.81 60.03,441.51 C60.03,439.1 60.13,436.7 60.18,434.28 C60.32,428.14 60.52,422 60.78,415.86 C60.84,414.15 60.92,412.45 61.01,410.75 C61.01,409.77 61.06,408.79 61.16,407.81 C61.4,404.25 61.6,400.72 61.84,397.2 Z" id="Path" fill="#99d1d4" opacity="0.1"></path>
            <path d="M163.33,243.18 L107.66,243.18 C116.709456,229.015774 126.597072,215.404859 137.27,202.42 C145.54,192.26 154.27,182.36 163.33,172.82 L163.33,243.18 Z" id="Path" fill="#99d1d4" opacity="0.1"></path>
            <path d="M163.33,247.46 L163.33,392.92 L62.16,392.92 C62.16,392.5 62.23,392.07 62.26,391.65 C62.35,390.5 62.44,389.35 62.54,388.21 C62.65,386.87 62.77,385.52 62.9,384.21 C63.03,382.9 63.17,381.3 63.32,379.85 C63.47,378.4 63.61,376.93 63.78,375.48 C63.95,374.03 64.1,372.58 64.28,371.14 C64.46,369.7 64.62,368.24 64.81,366.8 C64.96,365.6 65.12,364.41 65.28,363.21 C65.51,361.52 65.75,359.82 66.01,358.14 C66.01,357.89 66.08,357.63 66.12,357.39 C67.9451886,345.091622 70.4321314,332.900595 73.57,320.87 C76.8545913,308.249858 81.0488966,295.884177 86.12,283.87 C91.509652,271.301744 97.8201481,259.148691 105,247.51 L163.33,247.46 Z" id="Path" fill="#99d1d4" opacity="0.1"></path>
            <path d="M187.56,397.19 L187.56,535.53 L404.33,535.53 L404.33,397.19 L187.56,397.19 Z M187.56,539.8 L187.56,658.6 C188.8,658.86 190.03,659.11 191.25,659.32 C192.91,659.64 194.56,659.93 196.25,660.18 C196.57,660.23 196.9,660.28 197.25,660.31 C197.91,660.42 198.59,660.51 199.25,660.6 C200.92,660.83 202.58,661.02 204.25,661.17 C205.04,661.25 205.84,661.32 206.64,661.38 L208.57,661.53 C209.62,661.61 210.66,661.67 211.69,661.7 C212.33,661.7 212.97,661.76 213.63,661.78 C214.13,661.78 214.63,661.78 215.15,661.78 C215.67,661.78 216.41,661.78 217.04,661.78 C217.9,661.78 218.76,661.78 219.61,661.78 L220.76,661.78 C221.62,661.78 222.48,661.78 223.33,661.7 L223.39,661.7 C223.98,661.7 224.58,661.7 225.18,661.62 C225.346518,661.629953 225.513482,661.629953 225.68,661.62 C226.18,661.62 226.68,661.62 227.16,661.55 L227.51,661.55 L230.86,661.29 C231.96,661.19 233.07,661.06 234.19,660.94 L236.47,660.67 C245.745776,659.370289 254.918477,657.418793 263.92,654.83 C284.14,649.19 303.92,641.3 324.13,635.52 C350.26,628.07 379.13,624.41 404.38,633.52 L404.38,539.8 L187.56,539.8 Z M404.33,243.18 L404.33,59.01 C380.597376,58.7528764 356.929129,61.5286781 333.9,67.27 C279.01,81.06 229.76,110.97 187.56,149.17 L187.56,243.17 L198.44,243.17 L198.44,247.44 L187.56,247.44 L187.56,392.92 L404.33,392.92 L404.33,247.45 L243.11,247.45 L243.11,243.18 L404.33,243.18 Z M682.76,180.97 C669.18,180.49 655.68,176.19 643.47,169.55 C620.12,156.85 601.47,137.24 580.63,120.69 C537.33,86.22 483.63,65.42 428.54,60.26 L428.54,243.18 L737.99,243.18 L738.76,242.37 L682.76,180.97 Z M710.95,175.97 L740.84,208.77 L740.84,167.37 C730.83,168.61 722.06,171.56 710.99,175.93 L710.95,175.97 Z M740.84,688.1 L740.84,539.8 L677.15,539.8 C676.98,539.17 676.81,538.53 676.61,537.89 C676.8,538.53 676.96,539.17 677.14,539.8 L428.58,539.8 L428.58,647.05 C430.94,648.8 433.27,650.64 435.58,652.51 C438.07,654.51 440.53,656.62 443,658.69 L445.49,660.75 C446.68,661.75 447.88,662.75 449.09,663.69 C451.49,665.636667 453.913333,667.556667 456.36,669.45 C457.57,670.45 458.81,671.35 460.04,672.29 C479.567111,687.219702 500.166028,700.692724 521.67,712.6 C526.49,715.266667 531.353333,717.87 536.26,720.41 C539.53,722.08 542.82,723.74 546.12,725.35 C551.08,727.77 556.08,730.103333 561.12,732.35 C607.586357,753.20841 656.72112,767.521434 707.12,774.88 C718.313333,776.533333 729.55,777.833333 740.83,778.78 L740.83,688.09 L741.83,688.09 L740.84,688.1 Z M428.58,247.45 L428.58,392.92 L740.88,392.92 L740.88,247.45 L428.58,247.45 Z M428.58,397.19 L428.58,535.53 L740.88,535.53 L740.88,397.19 L428.58,397.19 Z M765.12,167.19 L765.12,213.37 L803.27,171.51 C790.63,169.47 777.913333,168.013333 765.12,167.14 L765.12,167.19 Z M765.12,397.24 L765.12,535.53 L1068.87,535.53 L1068.87,397.19 L765.12,397.24 Z M1067.76,699.08 L1068.83,539.8 L765.12,539.8 L765.12,780.37 C784.685025,781.191928 804.280139,780.958255 823.82,779.67 L824.16,779.67 C833.493333,779.083333 842.783333,778.23 852.03,777.11 L852.24,777.11 C901.570617,771.368778 949.806767,758.497946 995.44,738.9 L1067.76,699.08 Z M1127.44,419.97 C1126.3,417.28 1125.11,414.61 1123.9,411.97 C1121.64,406.97 1119.25,402.11 1116.79,397.25 L1093.09,397.25 L1093.09,535.53 L1153.01,535.53 C1152.98,496.37 1143.07,456.37 1127.47,419.92 L1127.44,419.97 Z M1093.09,539.85 L1093.09,676.85 C1109.97,660.67 1124.23,642.16 1134.5,621 C1146.85,595.52 1152.5,567.93 1152.96,539.83 L1093.09,539.85 Z M1093.09,356.93 L1093.09,392.93 L1114.57,392.93 C1108.07191,380.537226 1100.91155,368.503156 1093.12,356.88 L1093.09,356.93 Z M887.09,194.33 C885.51,193.73 883.93,193.12 882.34,192.53 C865.570863,186.337282 848.434829,181.187454 831.03,177.11 L772.65,241.18 L771.53,242.37 L772.28,243.19 L980.06,243.19 C951.122089,223.270476 919.924294,206.852527 887.12,194.28 L887.09,194.33 Z M986.15,247.5 L769.38,247.5 L765.12,251.4 L765.12,392.92 L802.46,392.92 L802.52,392.92 L1068.91,392.92 L1068.91,324.37 C1044.81226,295.225788 1016.99873,269.365567 986.18,247.45 L986.15,247.5 Z" id="Shape" fill="#99d1d4" fill-rule="nonzero" opacity="0.1"></path>
            <path d="M163.33,320.83 L163.33,392.92 L62.16,392.92 C62.16,392.5 62.23,392.07 62.26,391.65 C62.35,390.5 62.44,389.35 62.54,388.21 C62.65,386.87 62.77,385.52 62.9,384.21 C63.03,382.9 63.17,381.3 63.32,379.85 C63.47,378.4 63.61,376.93 63.78,375.48 C63.95,374.03 64.1,372.58 64.28,371.14 C64.46,369.7 64.62,368.24 64.81,366.8 C64.96,365.6 65.12,364.41 65.28,363.21 C65.51,361.52 65.75,359.82 66.01,358.14 C66.01,357.89 66.08,357.63 66.12,357.39 C67.9451886,345.091622 70.4321314,332.900595 73.57,320.87 L163.33,320.83 Z" id="Path" fill="#99d1d4" opacity="0.1"></path>
            <path d="M61.84,397.2 L163.33,397.2 L163.33,535.53 L69.27,535.53 C69.02,536.95 68.78,538.38 68.52,539.81 L163.33,539.81 L163.33,651.37 C163.16,651.32 163.01,651.26 162.85,651.2 C160.17,650.14 157.51,649.02 154.85,647.82 L153.15,647.05 C150.483333,645.79 147.816667,644.456667 145.15,643.05 C144.22,642.56 143.29,642.05 142.37,641.53 C127.565828,633.237208 114.117017,622.72906 102.49,610.37 C102.15,610.04 101.83,609.69 101.49,609.37 C99.87,607.61 98.28,605.83 96.74,604.01 L95.04,602.01 C93.22,599.78 91.46,597.49 89.75,595.17 C89.5,594.83 89.26,594.49 89,594.17 C82.0454712,584.527281 76.2710063,574.086243 71.8,563.07 C71.66,562.74 71.54,562.38 71.41,562.07 C70.0366667,558.536667 68.82,554.97 67.76,551.37 C67.3,549.86 66.86,548.37 66.48,546.8 C66.34,546.34 66.22,545.89 66.11,545.44 C60.43,523.27 59.76,500.24 59.76,477.37 C59.76,474.7 59.76,472.02 59.76,469.37 C59.76,460.12 59.87,450.81 60.03,441.51 C60.03,439.1 60.13,436.7 60.18,434.28 C60.32,428.14 60.52,422 60.78,415.86 C60.84,414.15 60.92,412.45 61.01,410.75 C61.01,409.77 61.06,408.79 61.16,407.81 C61.4,404.25 61.6,400.72 61.84,397.2 Z" id="Path" fill="#99d1d4" opacity="0.1"></path>
            <polygon id="Path" fill="#99d1d4" opacity="0.1" points="263.87 268.28 263.87 392.92 187.56 392.92 187.56 268.28 198.44 268.28 198.44 226.08 243.1 226.08 243.1 268.28"></polygon>
            <rect id="Rectangle" fill="#99d1d4" opacity="0.1" x="187.57" y="397.19" width="76.3" height="138.33"></rect>
            <path d="M187.56,539.81 L263.87,539.81 L263.87,654.81 C254.868504,657.396511 245.695728,659.344682 236.42,660.64 L234.14,660.92 C233.02,661.05 231.91,661.16 230.81,661.27 C229.71,661.38 228.57,661.46 227.46,661.53 L227.11,661.53 C226.63,661.53 226.11,661.59 225.64,661.6 L225.13,661.6 C224.53,661.6 223.93,661.66 223.33,661.68 C222.48,661.73 221.63,661.74 220.76,661.75 C220.39,661.75 220.04,661.75 219.67,661.75 C218.81,661.75 217.96,661.75 217.1,661.75 L215.21,661.75 C214.7,661.75 214.21,661.75 213.68,661.75 L211.75,661.68 C210.75,661.68 209.67,661.57 208.63,661.5 L206.71,661.36 L204.32,661.14 C202.64,660.99 200.97,660.8 199.32,660.57 L197.32,660.29 L196.32,660.15 C194.65,659.89 193,659.61 191.32,659.29 C190.09,659.08 188.87,658.82 187.63,658.57 L187.56,539.81 Z" id="Path" fill="#99d1d4" opacity="0.1"></path>
            <rect id="Rectangle" fill="#99d1d4" opacity="0.1" x="677.96" y="253.56" width="62.92" height="139.35"></rect>
            <polygon id="Path" fill="#99d1d4" opacity="0.1" points="740.89 397.19 740.89 535.53 428.58 535.53 428.58 475.86 594.93 475.86 594.93 511.06 677.96 511.06 677.96 397.19"></polygon>
            <path d="M741.88,688.13 L740.88,688.13 L740.88,778.88 C729.613333,777.926667 718.38,776.63 707.18,774.99 C656.756313,767.60776 607.600893,753.264312 561.12,732.37 C547.7,726.33 534.553333,719.736667 521.68,712.59 C500.176385,700.676854 479.574564,687.204118 460.04,672.28 C455.133333,668.52 450.29,664.673333 445.51,660.74 C442.2,658.01 438.91,655.21 435.58,652.49 C433.27,650.62 430.94,648.78 428.58,647.02 L428.58,539.81 L677.13,539.81 C676.96,539.17 676.79,538.53 676.61,537.9 C676.8,538.53 676.98,539.17 677.15,539.81 L740.88,539.81 L740.88,688.07 C741.22,688.08 741.55,688.11 741.88,688.13 Z" id="Path" fill="#99d1d4" opacity="0.1"></path>
            <path d="M904.98,243.18 L863.98,243.18 L863.98,230.44 L882.36,230.44 L882.36,192.49 C883.953333,193.07 885.54,193.666667 887.12,194.28 L887.12,230.44 L904.98,230.44 L904.98,243.18 Z" id="Path" fill="#99d1d4" opacity="0.1"></path>
            <path d="M1003.76,392.92 L802.48,392.92 C802.48,392.92 802.48,392.92 802.55,392.97 L802.46,392.92 L765.12,392.92 L765.12,253.57 L775.7,253.57 L775.7,356.57 L824.05,356.57 L824.05,295.57 L863.99,295.57 L863.99,247.46 L904.99,247.46 L904.99,295.61 L944.93,295.61 L944.93,356.61 L1003.76,356.61 L1003.76,392.92 Z" id="Path" fill="#99d1d4" opacity="0.1"></path>
            <path d="M765.12,397.19 L765.12,535.53 L1003.76,535.53 L1003.76,397.19 L765.12,397.19 Z M1068.54,698.37 L1068.87,588.87 L1003.76,588.87 L1003.76,539.87 L765.12,539.87 L765.12,780.37 C784.685025,781.191928 804.280139,780.958255 823.82,779.67 L824.16,779.67 C833.493333,779.083333 842.783333,778.23 852.03,777.11 L852.24,777.11 C901.570617,771.368778 949.806767,758.497946 995.44,738.9 L1068.54,698.37 Z" id="Shape" fill="#99d1d4" fill-rule="nonzero" opacity="0.1"></path>
            <path d="M1097.33,539.81 L1153,539.81 C1152.51,567.9 1146.87,595.49 1134.53,620.97 C1124.26,642.14 1109.99,660.65 1093.13,676.82 L1093.13,588.82 L1097.33,588.82 L1097.33,539.81 Z" id="Path" fill="#99d1d4" opacity="0.1"></path>
            <path d="M1153.03,535.53 L1097.33,535.53 L1097.33,419.92 L1127.47,419.92 C1143.07,456.37 1152.98,496.37 1153.03,535.53 Z" id="Path" fill="#99d1d4" opacity="0.1"></path>
            <rect id="Rectangle" fill="#99d1d4" opacity="0.1" x="707.18" y="292.3" width="33.71" height="43.69"></rect>
            <rect id="Rectangle" fill="#99d1d4" opacity="0.1" x="707.18" y="382.86" width="33.71" height="10.06"></rect>
            <rect id="Rectangle" fill="#99d1d4" opacity="0.1" x="707.18" y="397.19" width="33.71" height="29.35"></rect>
            <rect id="Rectangle" fill="#99d1d4" opacity="0.1" x="707.18" y="473.42" width="33.71" height="43.69"></rect>
            <rect id="Rectangle" fill="#99d1d4" opacity="0.1" x="707.18" y="563.98" width="33.71" height="43.69"></rect>
            <path d="M740.88,688.07 C741.22,688.07 741.55,688.07 741.88,688.13 L740.88,688.13 L740.88,698.28 L707.18,698.28 L707.18,654.54 L740.88,654.54 L740.88,688.07 Z" id="Path" fill="#99d1d4" opacity="0.1"></path>
            <path d="M740.88,745.08 L740.88,778.83 C729.613333,777.876667 718.38,776.58 707.18,774.94 L707.18,745.08 L740.88,745.08 Z" id="Path" fill="#99d1d4" opacity="0.1"></path>
            <rect id="Rectangle" fill="#99d1d4" opacity="0.1" x="428.58" y="532.32" width="144.47" height="3.21"></rect>
            <rect id="Rectangle" fill="#99d1d4" opacity="0.1" x="428.58" y="539.8" width="144.47" height="12.3"></rect>
            <rect id="Rectangle" fill="#99d1d4" opacity="0.1" x="428.58" y="592.42" width="144.47" height="19.78"></rect>
            <path d="M573.04,652.52 L573.04,672.3 L460.04,672.3 C455.133333,668.553333 450.286667,664.706667 445.5,660.76 C442.19,658.03 438.91,655.23 435.57,652.52 L573.04,652.52 Z" id="Path" fill="#99d1d4" opacity="0.1"></path>
            <path d="M573.04,712.61 L573.04,732.37 L561.11,732.37 C547.703333,726.323333 534.56,719.726667 521.68,712.58 L573.04,712.61 Z" id="Path" fill="#99d1d4" opacity="0.1"></path>
            <rect id="Rectangle" fill="#99d1d4" opacity="0.1" x="823.83" y="410.6" width="28.44" height="28.44"></rect>
            <rect id="Rectangle" fill="#99d1d4" opacity="0.1" x="208.05" y="278.09" width="28.44" height="28.44"></rect>
            <rect id="Rectangle" fill="#99d1d4" opacity="0.1" x="208.05" y="344.15" width="28.44" height="28.44"></rect>
            <rect id="Rectangle" fill="#99d1d4" opacity="0.1" x="208.05" y="410.21" width="28.44" height="28.44"></rect>
            <rect id="Rectangle" fill="#99d1d4" opacity="0.1" x="208.05" y="476.26" width="28.44" height="28.44"></rect>
            <rect id="Rectangle" fill="#99d1d4" opacity="0.1" x="208.05" y="542.32" width="28.44" height="28.44"></rect>
            <rect id="Rectangle" fill="#99d1d4" opacity="0.1" x="208.05" y="608.38" width="28.44" height="28.44"></rect>
            <rect id="Rectangle" fill="#99d1d4" opacity="0.1" x="932.4" y="410.6" width="28.44" height="28.44"></rect>
            <rect id="Rectangle" fill="#99d1d4" opacity="0.1" x="823.83" y="480.75" width="28.44" height="28.44"></rect>
            <rect id="Rectangle" fill="#99d1d4" opacity="0.1" x="932.4" y="480.75" width="28.44" height="28.44"></rect>
            <rect id="Rectangle" fill="#99d1d4" opacity="0.1" x="823.83" y="550.89" width="28.44" height="28.44"></rect>
            <rect id="Rectangle" fill="#99d1d4" opacity="0.1" x="932.4" y="550.89" width="28.44" height="28.44"></rect>
            <rect id="Rectangle" fill="#99d1d4" opacity="0.1" x="823.83" y="621.04" width="28.44" height="28.44"></rect>
            <rect id="Rectangle" fill="#99d1d4" opacity="0.1" x="932.4" y="621.04" width="28.44" height="28.44"></rect>
            <rect id="Rectangle" fill="#99d1d4" opacity="0.1" x="823.83" y="691.19" width="28.44" height="28.44"></rect>
            <rect id="Rectangle" fill="#99d1d4" opacity="0.1" x="932.4" y="691.19" width="28.44" height="28.44"></rect>
            <polygon id="Path" fill="#99d1d4" opacity="0.1" points="823.83 779.67 823.83 761.33 852.26 761.33 852.26 777.06"></polygon>
            <path d="M66,357.37 L66,373.64 L163.33,373.64 L163.33,357.37 L66,357.37 Z M75.7,372.62 L67.76,372.62 L67.76,358.37 L75.76,358.37 L75.7,372.62 Z M85.39,372.62 L77.39,372.62 L77.39,358.37 L85.39,358.37 L85.39,372.62 Z M95.06,372.62 L87.06,372.62 L87.06,358.37 L95.06,358.37 L95.06,372.62 Z M104.75,372.62 L96.76,372.62 L96.76,358.37 L104.76,358.37 L104.75,372.62 Z M114.43,372.62 L106.43,372.62 L106.43,358.37 L114.43,358.37 L114.43,372.62 Z M124.12,372.62 L116.12,372.62 L116.12,358.37 L124.12,358.37 L124.12,372.62 Z M133.81,372.62 L125.81,372.62 L125.81,358.37 L133.81,358.37 L133.81,372.62 Z M143.49,372.62 L135.49,372.62 L135.49,358.37 L143.49,358.37 L143.49,372.62 Z M153.17,372.62 L145.17,372.62 L145.17,358.37 L153.17,358.37 L153.17,372.62 Z M162.85,372.62 L154.85,372.62 L154.85,358.37 L162.85,358.37 L162.85,372.62 Z" id="Shape" fill="#99d1d4" fill-rule="nonzero" opacity="0.1"></path>
            <path d="M66,404.71 L66,420.98 L163.33,420.98 L163.33,404.71 L66,404.71 Z M75.7,419.95 L67.76,419.95 L67.76,405.74 L75.76,405.74 L75.7,419.95 Z M85.39,419.95 L77.39,419.95 L77.39,405.74 L85.39,405.74 L85.39,419.95 Z M95.06,419.95 L87.06,419.95 L87.06,405.74 L95.06,405.74 L95.06,419.95 Z M104.75,419.95 L96.76,419.95 L96.76,405.74 L104.76,405.74 L104.75,419.95 Z M114.43,419.95 L106.43,419.95 L106.43,405.74 L114.43,405.74 L114.43,419.95 Z M124.12,419.95 L116.12,419.95 L116.12,405.74 L124.12,405.74 L124.12,419.95 Z M133.81,419.95 L125.81,419.95 L125.81,405.74 L133.81,405.74 L133.81,419.95 Z M143.49,419.95 L135.49,419.95 L135.49,405.74 L143.49,405.74 L143.49,419.95 Z M153.17,419.95 L145.17,419.95 L145.17,405.74 L153.17,405.74 L153.17,419.95 Z M162.85,419.95 L154.85,419.95 L154.85,405.74 L162.85,405.74 L162.85,419.95 Z" id="Shape" fill="#99d1d4" fill-rule="nonzero" opacity="0.1"></path>
            <path d="M66,452.07 L66,468.37 L163.33,468.37 L163.33,452.07 L66,452.07 Z M75.7,467.31 L67.76,467.31 L67.76,453.09 L75.76,453.09 L75.7,467.31 Z M85.39,467.31 L77.39,467.31 L77.39,453.09 L85.39,453.09 L85.39,467.31 Z M95.06,467.31 L87.06,467.31 L87.06,453.09 L95.06,453.09 L95.06,467.31 Z M104.75,467.31 L96.76,467.31 L96.76,453.09 L104.76,453.09 L104.75,467.31 Z M114.43,467.31 L106.43,467.31 L106.43,453.09 L114.43,453.09 L114.43,467.31 Z M124.12,467.31 L116.12,467.31 L116.12,453.09 L124.12,453.09 L124.12,467.31 Z M133.81,467.31 L125.81,467.31 L125.81,453.09 L133.81,453.09 L133.81,467.31 Z M143.49,467.31 L135.49,467.31 L135.49,453.09 L143.49,453.09 L143.49,467.31 Z M153.17,467.31 L145.17,467.31 L145.17,453.09 L153.17,453.09 L153.17,467.31 Z M162.85,467.31 L154.85,467.31 L154.85,453.09 L162.85,453.09 L162.85,467.31 Z" id="Shape" fill="#99d1d4" fill-rule="nonzero" opacity="0.1"></path>
            <path d="M66,499.43 L66,515.68 L163.33,515.68 L163.33,499.43 L66,499.43 Z M75.7,514.67 L67.76,514.67 L67.76,500.44 L75.76,500.44 L75.7,514.67 Z M85.39,514.67 L77.39,514.67 L77.39,500.44 L85.39,500.44 L85.39,514.67 Z M95.06,514.67 L87.06,514.67 L87.06,500.44 L95.06,500.44 L95.06,514.67 Z M104.75,514.67 L96.76,514.67 L96.76,500.44 L104.76,500.44 L104.75,514.67 Z M114.43,514.67 L106.43,514.67 L106.43,500.44 L114.43,500.44 L114.43,514.67 Z M124.12,514.67 L116.12,514.67 L116.12,500.44 L124.12,500.44 L124.12,514.67 Z M133.81,514.67 L125.81,514.67 L125.81,500.44 L133.81,500.44 L133.81,514.67 Z M143.49,514.67 L135.49,514.67 L135.49,500.44 L143.49,500.44 L143.49,514.67 Z M153.17,514.67 L145.17,514.67 L145.17,500.44 L153.17,500.44 L153.17,514.67 Z M162.85,514.67 L154.85,514.67 L154.85,500.44 L162.85,500.44 L162.85,514.67 Z" id="Shape" fill="#99d1d4" fill-rule="nonzero" opacity="0.1"></path>
            <path d="M66.42,546.78 C66.81,548.31 67.25,549.84 67.71,551.35 L67.71,547.8 L75.71,547.8 L75.71,562.02 L71.43,562.02 C71.56,562.35 71.69,562.71 71.82,563.02 L163.33,563.02 L163.33,546.78 L66.42,546.78 Z M85.42,562.02 L77.42,562.02 L77.42,547.8 L85.42,547.8 L85.42,562.02 Z M95.09,562.02 L87.09,562.02 L87.09,547.8 L95.09,547.8 L95.09,562.02 Z M104.78,562.02 L96.76,562.02 L96.76,547.8 L104.76,547.8 L104.78,562.02 Z M114.46,562.02 L106.46,562.02 L106.46,547.8 L114.46,547.8 L114.46,562.02 Z M124.15,562.02 L116.15,562.02 L116.15,547.8 L124.15,547.8 L124.15,562.02 Z M133.84,562.02 L125.84,562.02 L125.84,547.8 L133.84,547.8 L133.84,562.02 Z M143.52,562.02 L135.52,562.02 L135.52,547.8 L143.52,547.8 L143.52,562.02 Z M153.2,562.02 L145.2,562.02 L145.2,547.8 L153.2,547.8 L153.2,562.02 Z M162.88,562.02 L154.88,562.02 L154.88,547.8 L162.88,547.8 L162.88,562.02 Z" id="Shape" fill="#99d1d4" fill-rule="nonzero" opacity="0.1"></path>
            <path d="M89.02,594.14 C89.27,594.46 89.51,594.82 89.77,595.14 L95.06,595.14 L95.06,601.97 C95.63,602.65 96.19,603.33 96.77,603.97 L96.77,595.1 L104.77,595.1 L104.77,609.37 L101.53,609.37 C101.85,609.7 102.16,610.05 102.53,610.37 L163.36,610.37 L163.36,594.14 L89.02,594.14 Z M114.43,609.37 L106.43,609.37 L106.43,595.16 L114.43,595.16 L114.43,609.37 Z M124.12,609.37 L116.12,609.37 L116.12,595.16 L124.12,595.16 L124.12,609.37 Z M133.81,609.37 L125.81,609.37 L125.81,595.16 L133.81,595.16 L133.81,609.37 Z M143.49,609.37 L135.49,609.37 L135.49,595.16 L143.49,595.16 L143.49,609.37 Z M153.17,609.37 L145.17,609.37 L145.17,595.16 L153.17,595.16 L153.17,609.37 Z M162.85,609.37 L154.85,609.37 L154.85,595.16 L162.85,595.16 L162.85,609.37 Z" id="Shape" fill="#99d1d4" fill-rule="nonzero" opacity="0.1"></path>
            <path d="M142.41,641.49 C143.32,642.01 144.25,642.49 145.19,643.01 L145.19,642.51 L153.19,642.51 L153.19,647.01 L154.89,647.8 L154.89,642.51 L162.89,642.51 L162.89,651.16 C163.043409,651.236289 163.204255,651.296606 163.37,651.34 L163.37,641.49 L142.41,641.49 Z" id="Path" fill="#99d1d4" opacity="0.1"></path>
            <path d="M740.88,688.06 L741.88,688.06 L740.88,688.06 Z M676.61,537.89 C676.8,538.53 676.96,539.17 677.14,539.8 C676.98,539.17 676.81,538.53 676.61,537.89 Z M198.48,243.15 L198.48,247.42 L243.15,247.42 L243.15,243.15 L198.48,243.15 Z M740.88,688.06 L741.88,688.06 L740.88,688.06 Z M676.61,537.89 C676.8,538.53 676.96,539.17 677.14,539.8 C676.98,539.17 676.81,538.53 676.61,537.89 Z M740.88,688.03 L741.88,688.03 L740.88,688.03 Z M676.61,537.89 C676.8,538.53 676.96,539.17 677.14,539.8 C676.98,539.17 676.81,538.53 676.61,537.89 Z" id="Shape" fill="#99d1d4" fill-rule="nonzero" opacity="0.1"></path>
            <path d="M509.6,438.67 C509.6,438.67 505.66,438.12 505.66,432.38 C505.66,426.64 502.84,415.92 502.84,415.92 C502.84,415.87 500.4,397.25 497.03,394.29 C493.66,391.33 489.33,373.95 489.33,373.95 C489.33,373.95 488.59,364.52 487.08,362.49 C485.57,360.46 483.53,355.49 480.52,348.4 C477.51,341.31 464.96,336.4 464.96,336.4 C464.96,336.4 442.27,323.24 435.84,318.95 C435.255561,318.597519 434.709299,318.185309 434.21,317.72 C433.09,316.25 428.21,316.22 428.21,316.22 C427.7,313 427.21,309.3 427.05,305.95 C427.05,305.59 427.05,305.23 427,304.87 C434.169907,300.631805 439.570413,293.949522 442.21,286.05 C442.33,285.67 442.43,285.27 442.54,284.89 C443.408692,284.60385 444.116604,283.964914 444.49,283.13 C445.07,281.84 445.08,280.33 445.8,279.13 C446.64,277.71 448.24,276.95 449.5,275.88 C452.68,273.18 453.5,268.63 453.35,264.49 C453.25,261.14 452.71,257.76 452.92,254.43 L452.98,253.59 C453.04,253.09 453.11,252.59 453.2,252.11 C453.69,249.63 454.76,247.29 455.36,244.83 C455.96,242.37 456.02,239.6 454.62,237.48 C452.57,234.37 448.3,233.75 444.55,233.43 C440.3,233.07 436.5,233.54 433.78,230.01 C432.507003,228.16502 431.074865,226.435077 429.5,224.84 C428.94,224.32 423.5,221 423.5,220.78 C418.19057,218.320913 412.172332,217.859337 406.55,219.48 C403.73,220.3 401.07,221.64 398.21,222.31 C392.04,223.77 384.94,222.19 379.7,225.72 C376.78,227.72 375.03,230.9 373.39,234 C372.056667,236.553333 370.703333,239.103333 369.33,241.65 C367.12,245.84 364.87,250.1 363.94,254.74 C363.744442,255.749686 363.624111,256.772497 363.58,257.8 L363.58,257.85 C363.58,258.22 363.58,258.59 363.58,258.96 L363.58,259.43 C363.58,259.78 363.58,260.12 363.64,260.43 C363.7,260.74 363.69,260.84 363.72,261.05 C363.75,261.26 363.8,261.73 363.86,262.05 C363.92,262.37 364.04,262.93 364.16,263.37 C364.21,263.56 364.28,263.74 364.34,263.92 C364.44,264.26 364.56,264.59 364.69,264.92 C364.76,265.09 364.83,265.27 364.91,265.44 C365.06,265.79 365.24,266.13 365.42,266.44 C365.5,266.58 365.56,266.71 365.64,266.84 C365.918997,267.305046 366.22624,267.752552 366.56,268.18 C368.7,270.85 371.85,272.55 374.18,275.05 C374.18,275.15 374.18,275.25 374.18,275.34 C374.18,275.62 374.18,275.89 374.18,276.17 C374.430936,287.490069 380.263558,297.953597 389.76,304.12 C389.76,304.5 389.81,304.89 389.83,305.27 C390.024995,308.238344 389.988217,311.217375 389.72,314.18 C388.895182,313.208526 387.673891,312.664094 386.4,312.7 C385.97033,312.679023 385.539791,312.716022 385.12,312.81 L385.03,312.74 L385.03,312.83 C382.83,313.37 380.12,315.66 377.53,322.17 C377.53,322.17 369.65,331.05 363.65,330.68 C357.65,330.31 342.46,339.92 342.46,339.92 C342.46,339.92 327.64,349.54 324.46,359.34 C322.682523,364.897112 320.551508,370.334873 318.08,375.62 L299.76,413.37 L296.38,443.32 C296.38,443.32 298.25,456.64 297.88,458.67 C297.51,460.7 305.57,479.01 305.57,479.01 C305.57,479.01 332.2,525.8 343.08,528.2 L343.86,527.65 C344.325496,527.893136 344.819231,528.077867 345.33,528.2 L347.57,526.62 C347.704508,528.380967 347.647507,530.151332 347.4,531.9 C345.9,536.52 347.96,566.67 350.58,572.58 C353.2,578.49 352.27,655.98 352.27,655.98 L351.9,662.82 C351.9,662.82 351.9,663.04 351.99,663.42 L351.9,665.04 L352.17,665.18 C352.450369,667.349586 352.359063,669.551081 351.9,671.69 C350.96,674.69 350.58,683.17 350.58,683.17 C350.58,683.17 343.09,731.05 346.64,740.67 C350.19,750.29 353.21,760.83 353.21,760.83 C353.21,760.83 356.96,772.83 353.39,774.88 C349.82,776.93 339.67,780.37 341.76,785.37 C343.66,789.99 350.87,802.37 351.94,804.18 L351.85,805.13 L350.38,821.06 C350.618037,823.16333 351.188469,825.215536 352.07,827.14 C353.68,830.61 356.81,834.21 362.76,833.82 C363.76,833.75 364.92,833.63 366.04,833.48 C376.93,832.02 390.34,827.16 390.34,827.16 C389.643801,826.717771 389.005533,826.19036 388.44,825.59 C387.358251,824.542166 386.754457,823.095953 386.77,821.59 C386.93,818.69 381.5,804.87 380.15,801.47 C379.94,800.98 379.83,800.7 379.83,800.7 C379.83,800.7 392.21,787.76 390.15,776.29 C390.15,776.29 376.45,768.29 380.96,763.9 C385.47,759.51 393.53,746.9 393.53,746.9 C393.53,746.9 393.9,699.75 393.53,692.71 C393.144086,687.823717 393.375915,682.908272 394.22,678.08 C394.37,677.35 394.55,676.64 394.74,675.94 C400.977218,676.871082 407.273704,677.349 413.58,677.37 C415.88,677.37 418.22,677.37 420.58,677.23 C420.58,677.896667 420.61,678.616667 420.67,679.39 C421.19,691.07 422.16,711.55 422.95,719.16 C424.07,730.07 430.26,759.47 430.26,759.47 C430.26,759.47 418.45,767.05 432.32,785.73 C432.32,785.73 432.32,792.5 431.4,793.48 C430.417819,796.683639 429.62643,799.94269 429.03,803.24 C428.45,806.76 428.21,810.32 429.15,812.17 C431.4,816.59 444.9,816.23 444.9,816.23 L445.23,816.17 C450.378046,815.637805 455.524736,817.190096 459.52,820.48 C464.65,824.6 484.12,822.79 494.66,821.48 C498.79,820.96 501.55,820.48 501.55,820.48 C501.683808,820.0125 501.73125,819.524519 501.69,819.04 C501.58,816.45 499.55,810.77 485.79,805.7 C485.79,805.7 472.85,797 473.03,789.42 L472.76,789.42 L471.26,789.42 C472.35,789.36 473.05,789.42 473.05,789.42 C473.05,789.42 467.98,770.92 470.05,769.42 C472.12,767.92 465.92,747.42 465.92,747.42 C465.92,747.42 462.37,713.02 462.18,710.61 C462.187949,708.541966 462.501332,706.486449 463.11,704.51 L462.18,685.65 C462.18,685.65 462,679.38 462.18,677.34 C462.149686,675.569298 462.006059,673.802352 461.75,672.05 C461.66,671.35 461.57,670.62 461.47,669.9 C466.32,668.67 469.47,667.53 469.47,667.53 L468.91,601.88 C473.03,593.88 473.79,576.33 473.77,563.88 C473.77,555.88 473.41,549.96 473.41,549.96 L479.04,540.77 C479.04,540.77 480.34,529.77 478.28,527.36 C477.37,526.27 477.78,525.14 478.53,524.21 C478.919518,523.901127 479.33056,523.620416 479.76,523.37 C479.76,523.37 479.7,523.28 479.63,523.15 C480.023111,522.821567 480.441023,522.524014 480.88,522.26 C480.88,522.26 478.88,519.16 480.67,517.85 C482.35,518.99 483.85,519.85 484.99,520.55 C484.91,521.28 484.83,521.7 484.83,521.7 L485.31,520.7 C486.41,521.32 487.08,521.7 487.08,521.7 C487.08,521.7 495.9,504.13 495.71,501.54 C495.52,498.95 501.71,488.04 501.71,488.04 C501.71,488.04 502.46,482.31 505.84,479.91 C509.22,477.51 508.46,460.12 508.46,460.12 C508.46,460.12 509.4,451.06 511.65,447.36 C513.9,443.66 509.6,438.67 509.6,438.67 Z M340.84,430.96 L341.01,435.15 C340.01,433.54 339.29,432.38 339.29,432.38 L340.84,430.96 Z" id="Shape" fill="url(#linearGradient-1)" fill-rule="nonzero"></path>
            <path d="M487.56,514.11 L485.4,523.31 C485.4,523.31 468.1,514.48 464.98,503.26 C461.86,492.04 470.2,487.78 470.2,487.78 L486.32,494.61 L487.56,514.11 Z" id="Path" fill="#FFFFFF"></path>
            <path d="M487.56,514.11 L485.4,523.31 C485.4,523.31 468.1,514.48 464.98,503.26 C461.86,492.04 470.2,487.78 470.2,487.78 L486.32,494.61 L487.56,514.11 Z" id="Path" fill="#000000" opacity="0.1"></path>
            <path d="M390.47,827.22 C390.47,827.22 374.47,833.1 363.47,833.84 C357.63,834.23 354.56,830.65 352.98,827.2 C352.116862,825.282079 351.560087,823.240572 351.33,821.15 L352.76,805.3 L353.52,796.86 L376.89,790.79 L380.2,800.91 L380.51,801.68 C381.84,805.06 387.17,818.81 387.01,821.68 C386.99678,823.1649 387.588937,824.591132 388.65,825.63 C389.186581,826.235241 389.798185,826.769554 390.47,827.22 Z" id="Path" fill="#FFFFFF"></path>
            <path d="M499.76,819.16 C499.800029,819.64121 499.752597,820.125691 499.62,820.59 C499.62,820.59 465.4,826.3 458.4,820.59 C454.409164,817.216918 449.180213,815.684545 444,816.37 C444,816.37 430.76,816.73 428.55,812.37 C427.63,810.54 427.87,806.99 428.44,803.49 C429.021497,800.210482 429.796179,796.96817 430.76,793.78 L431.29,793.36 L434.44,790.83 L471.32,789.74 L471.6,789.74 C471.42,797.28 484.12,805.93 484.12,805.93 C497.61,810.93 499.6,816.58 499.76,819.16 Z" id="Path" fill="#FFFFFF"></path>
            <path d="M499.76,819.16 C499.795048,819.641788 499.74426,820.125972 499.61,820.59 C499.61,820.59 465.4,826.3 458.4,820.59 C454.411633,817.219657 449.186912,815.68746 444.01,816.37 C444.01,816.37 430.76,816.73 428.56,812.37 C427.64,810.53 427.87,806.99 428.44,803.49 C433.54,804 441.59,805.27 444.75,808.3 C449.53,812.91 457.63,817.51 462.6,817.87 C466.49,818.12 489.76,818.86 499.76,819.16 Z" id="Path" fill="#000000" opacity="0.1"></path>
            <path d="M390.47,827.22 C390.47,827.22 374.47,833.1 363.47,833.84 C357.63,834.23 354.56,830.65 352.99,827.19 C357.06,828.56 362.71,830 365.68,828.68 C369.2,827.12 381.68,826.11 388.68,825.68 C389.212756,826.263253 389.81374,826.780301 390.47,827.22 Z" id="Path" fill="#000000" opacity="0.1"></path>
            <path d="M414.21,353.37 C401.01,348.24 384.03,331.29 388.27,323.37 C389.211674,321.371399 389.771292,319.214324 389.92,317.01 C390.192789,314.017623 390.232909,311.008586 390.04,308.01 C389.742732,303.099046 389.151674,298.210298 388.27,293.37 C388.27,293.37 429.48,294.3 427.08,300.37 C426.38,302.15 426.27,305.24 426.46,308.7 C426.65,312.16 427.15,316.07 427.67,319.38 C428.39,323.92 429.11,327.38 429.11,327.38 C429.11,327.38 426.59,330.91 425.11,331.1 C423.63,331.29 433.15,360.68 414.21,353.37 Z" id="Path" fill="#CF6F80"></path>
            <path d="M380.48,801.68 L380.17,802.02 C367.85,787.12 352.95,805.69 352.95,805.69 L352.73,805.3 L353.49,796.86 L376.86,790.79 L380.17,800.91 L380.48,801.68 Z" id="Path" fill="#000000" opacity="0.1"></path>
            <path d="M471.61,790.79 C471.61,790.79 462.61,790.6 457.81,794.84 C453.01,799.08 429.81,795.76 430.81,794.84 C431.106272,794.384086 431.284931,793.861852 431.33,793.32 L434.48,790.79 L471.36,789.7 C471.5,790.37 471.61,790.79 471.61,790.79 Z" id="Path" fill="#000000" opacity="0.1"></path>
            <path d="M395.81,673.78 C395.139691,675.437193 394.630671,677.155136 394.29,678.91 C393.456068,683.715827 393.224282,688.606847 393.6,693.47 C393.97,700.47 393.6,747.38 393.6,747.38 C393.6,747.38 385.69,759.89 381.28,764.3 C376.87,768.71 390.28,776.63 390.28,776.63 C392.28,788.03 380.16,800.91 380.16,800.91 C367.84,786.01 352.94,804.59 352.94,804.59 C352.94,804.59 344.84,790.59 342.82,785.59 C340.8,780.59 350.73,777.13 354.22,775.1 C357.71,773.07 354.05,761.1 354.05,761.1 C354.05,761.1 351.1,750.61 347.6,741.04 C344.1,731.47 351.46,683.83 351.46,683.83 C351.46,683.83 351.84,675.37 352.75,672.42 C353.209141,670.291236 353.30046,668.099581 353.02,665.94 C352.96,665.21 352.89,664.6 352.84,664.19 C352.79,663.78 352.75,663.59 352.75,663.59 L352.89,663.35 L357.89,654.03 C357.89,654.03 398.21,667.91 395.81,673.78 Z" id="Path" fill="#99d1d4"></path>
            <path d="M471.61,789.69 C471.61,789.69 462.61,789.5 457.81,793.69 C453.01,797.88 429.81,794.61 430.81,793.69 C431.81,792.77 431.73,785.96 431.73,785.96 C418.12,767.38 429.73,759.84 429.73,759.84 C429.73,759.84 423.65,730.59 422.55,719.74 C421.78,712.16 420.83,691.79 420.32,680.16 C420.1,675.16 419.97,671.72 419.97,671.72 L431.09,669.48 L432.52,669.19 L459.34,663.81 C459.34,663.81 460.08,668.81 460.58,672.9 C460.82928,674.646243 460.969552,676.406317 461,678.17 C460.82,680.17 461,686.43 461,686.43 L461.91,705.2 C461.31548,707.16885 461.008971,709.213366 461,711.27 C461.18,713.66 464.67,747.88 464.67,747.88 C464.67,747.88 470.74,768.3 468.67,769.77 C466.6,771.24 471.61,789.69 471.61,789.69 Z" id="Path" fill="#99d1d4"></path>
            <path d="M427.08,300.37 C426.38,302.15 426.27,305.24 426.46,308.7 C415.195912,315.483027 401.043033,315.218777 390.04,308.02 C389.743129,303.105698 389.15207,298.213599 388.27,293.37 C388.27,293.37 429.48,294.28 427.08,300.37 Z" id="Path" fill="#000000" opacity="0.1"></path>
            <path d="M443.01,278.27 C443.01798,281.873518 442.450849,285.455222 441.33,288.88 C436.157325,304.723178 420.323131,314.535711 403.833377,312.116851 C387.343623,309.697991 374.994636,295.751306 374.59,279.09 C374.59,278.81 374.59,278.55 374.59,278.27 C374.378631,265.906741 380.85335,254.391084 391.526408,248.147632 C402.199465,241.90418 415.410535,241.90418 426.083592,248.147632 C436.75665,254.391084 443.231369,265.906741 443.02,278.27 L443.01,278.27 Z" id="Path" fill="#CF6F80"></path>
            <path d="M414.21,353.37 C401.01,348.24 384.03,331.29 388.27,323.37 C389.211674,321.371399 389.771292,319.214324 389.92,317.01 L407.99,331.86 L419.17,341.03 L427.67,319.39 C428.39,323.93 429.11,327.39 429.11,327.39 C429.11,327.39 426.59,330.92 425.11,331.11 C423.63,331.3 433.15,360.68 414.21,353.37 Z" id="Path" fill="#000000" opacity="0.1"></path>
            <polygon id="Path" fill="#99d1d4" points="460.94 419 445.85 672.5 426.17 673.79 375.21 526.8 383.57 352.29 385.33 315.42 407.99 334.03 419.18 343.2 427.93 320.93 444.2 335.11"></polygon>
            <path d="M395.81,673.78 C395.139691,675.437193 394.630671,677.155136 394.29,678.91 C379.969874,676.699018 366.062033,672.354081 353.03,666.02 L352.76,665.88 L352.85,664.27 L352.9,663.43 L357.9,654.11 C357.9,654.11 398.21,667.91 395.81,673.78 Z" id="Path" fill="#000000" opacity="0.1"></path>
            <path d="M431.32,678.95 C427.659231,679.572514 423.966984,679.993149 420.26,680.21 C420.04,675.21 419.91,671.77 419.91,671.77 L431.03,669.53 L431.32,678.95 Z" id="Path" fill="#000000" opacity="0.1"></path>
            <path d="M460.52,672.95 C453.41,674.8 442.43,676.88 432.6,675.58 L432.46,669.24 L459.28,663.86 C459.28,663.86 460.02,668.81 460.52,672.95 Z" id="Path" fill="#000000" opacity="0.1"></path>
            <path d="M432.42,676.74 C391.42,683.74 353.87,663.67 353.87,663.67 L354.23,656.87 C354.23,656.87 355.16,579.78 352.58,573.87 C350,567.96 347.99,537.99 349.45,533.39 C350.91,528.79 344.12,459.81 344.12,459.81 L343.02,431.81 L302.76,415.5 L320.76,377.98 C323.191221,372.719539 325.282189,367.308409 327.02,361.78 C330.15,352.04 344.68,342.47 344.68,342.47 C344.68,342.47 359.58,332.91 365.47,333.27 C371.36,333.63 379.08,324.81 379.08,324.81 C384.78,310.28 389.94,316.86 389.94,316.86 C389.94,317.55 389.94,316.86 389.66,319.01 C387.66,334.96 422,385.36 422.49,386.25 L425.76,465.91 L429.07,566.72 L432.42,676.74 Z" id="Path" fill="#000000" opacity="0.1"></path>
            <path d="M431.32,676.74 C390.32,683.74 352.76,663.67 352.76,663.67 L353.13,656.87 C353.13,656.87 354.06,579.78 351.47,573.87 C348.88,567.96 346.88,537.99 348.35,533.39 C349.82,528.79 343.02,459.81 343.02,459.81 L341.91,431.81 L301.63,415.44 L319.63,377.92 C322.055931,372.657298 324.146767,367.24651 325.89,361.72 C329.01,351.98 343.55,342.41 343.55,342.41 C343.55,342.41 358.45,332.85 364.33,333.21 C370.21,333.57 377.94,324.75 377.94,324.75 C383.65,310.22 389.94,316.8 389.94,316.8 C389.94,317.49 389.34,317.8 389.66,318.95 C394.06,334.42 420.9,385.3 421.39,386.19 L424.7,465.85 L428.01,566.66 L431.32,676.74 Z" id="Path" fill="#FFFFFF"></path>
            <path d="M420.27,388.46 C415.86,386.62 392.5,359.95 392.5,359.95 L392.5,353.88 C391.65,351.88 386.6,353.1 382.5,354.5 L384.26,317.63 L386.26,319.29 C390.64,334.75 419.76,387.57 420.27,388.46 Z" id="Path" fill="#000000" opacity="0.1"></path>
            <path d="M421.38,386.25 C416.96,384.41 393.6,357.74 393.6,357.74 L393.6,351.67 C392.75,349.67 387.7,350.89 383.6,352.29 L385.37,315.42 L387.37,317.08 C391.76,332.54 420.89,385.37 421.38,386.25 Z" id="Path" fill="#FFFFFF"></path>
            <path d="M353.87,519.26 C354.42,519.26 382.38,516.32 382.38,516.32 C382.38,516.32 399.31,549.61 398.2,557.71 C397.09,565.81 395.08,572.98 388.27,571.71 C381.46,570.44 351.62,572.71 351.62,572.71 L353.87,519.26 Z" id="Path" fill="#000000" opacity="0.1"></path>
            <path d="M352.76,517.05 C353.31,517.05 381.27,514.11 381.27,514.11 C381.27,514.11 398.19,547.41 397.09,555.5 C395.99,563.59 393.96,570.77 387.16,569.5 C380.36,568.23 350.51,570.5 350.51,570.5 L352.76,517.05 Z" id="Path" fill="#FFFFFF"></path>
            <path d="M373.83,501.42 C373.83,501.42 399.49,515.21 400.04,519.42 C400.59,523.63 386.98,517.58 384.04,516.85 C382.104941,516.383727 380.135079,516.076041 378.15,515.93 L358.54,516.46 L373.83,501.42 Z" id="Path" fill="#CF6F80"></path>
            <circle id="Oval" fill="#000000" opacity="0.1" cx="413.11" cy="387.48" r="2.7"></circle>
            <circle id="Oval" fill="#3F3D56" cx="413.11" cy="386.38" r="2.7"></circle>
            <circle id="Oval" fill="#000000" opacity="0.1" cx="418.08" cy="504.36" r="2.7"></circle>
            <circle id="Oval" fill="#3F3D56" cx="418.08" cy="503.25" r="2.7"></circle>
            <circle id="Oval" fill="#000000" opacity="0.1" cx="415.8" cy="445.92" r="2.7"></circle>
            <circle id="Oval" fill="#3F3D56" cx="415.8" cy="444.82" r="2.7"></circle>
            <path d="M478.04,515.37 C478.04,515.37 479.88,518.13 478.04,519.42 C476.2,520.71 478.22,523.83 478.22,523.83 C478.22,523.83 473.63,526.52 475.65,528.94 C477.67,531.36 476.39,542.29 476.39,542.29 L470.87,551.43 C470.87,551.43 471.2,557.32 471.22,565.28 C471.22,577.7 470.49,595.16 466.45,603.12 L467.01,668.43 C467.01,668.43 447.68,675.49 431.5,673.34 L429.1,568.54 C429.1,568.54 432.6,509.11 433.89,497.71 C434.644915,491.791584 434.952453,485.824667 434.81,479.86 C434.81,479.86 434.26,462.02 432.41,453.74 C432.41,453.74 430.41,417.87 430.21,407.94 C430.12,403.19 430.37,389.33 430.65,376.15 C430.96,361.74 431.31,348.15 431.31,348.15 L427.66,319.27 C427.66,319.27 431.31,318.9 432.41,320.37 C432.902723,320.830281 433.438517,321.242172 434.01,321.6 C440.31,325.86 462.57,338.96 462.57,338.96 C462.57,338.96 474.89,343.86 477.84,350.88 C480.79,357.9 482.84,362.88 484.27,364.88 C485.7,366.88 486.48,376.28 486.48,376.28 C486.48,376.28 490.72,393.58 494.03,396.51 C497.34,399.44 499.76,418.08 499.76,418.08 L470.51,441.08 C470.51,441.08 467.94,479.34 467.39,480.82 C466.84,482.3 478.04,515.37 478.04,515.37 Z" id="Path" fill="#FFFFFF"></path>
            <path d="M479.15,515.37 C479.15,515.37 480.98,518.13 479.15,519.42 C477.32,520.71 479.32,523.83 479.32,523.83 C479.32,523.83 474.76,526.55 476.76,528.97 C478.76,531.39 477.5,542.32 477.5,542.32 L471.98,551.46 C471.98,551.46 472.31,557.35 472.34,565.31 C472.34,577.73 471.61,595.19 467.57,603.15 L468.12,668.46 C468.12,668.46 448.76,675.52 432.6,673.37 L430.21,568.57 C430.21,568.57 433.71,509.14 435,497.74 C435.755775,491.821706 436.059987,485.85447 435.91,479.89 C435.91,479.89 435.36,462.05 433.52,453.77 C433.52,453.77 431.52,417.9 431.31,407.97 C431.22,403.22 431.48,389.36 431.75,376.18 C432.06,361.77 432.41,348.18 432.41,348.18 L427.59,318.91 C427.59,318.91 432.41,318.91 433.52,320.4 C434.008098,320.865705 434.544464,321.278036 435.12,321.63 C441.42,325.89 463.69,338.99 463.69,338.99 C463.69,338.99 476,343.89 478.95,350.91 C481.9,357.93 483.95,362.91 485.39,364.91 C486.83,366.91 487.59,376.31 487.59,376.31 C487.59,376.31 491.83,393.61 495.14,396.54 C498.45,399.47 500.84,418.07 500.84,418.07 L471.59,441.07 C471.59,441.07 469.02,479.33 468.46,480.81 C467.9,482.29 479.15,515.37 479.15,515.37 Z" id="Path" fill="#FFFFFF"></path>
            <path d="M444.12,356.67 L446.76,364.37 L432.86,378.37 C433.17,363.97 433.52,350.37 433.52,350.37 L428.7,321.1 C428.7,321.1 433.52,321.1 434.63,322.59 C435.116704,323.054434 435.653302,323.46359 436.23,323.81 L448.05,357.91 L444.12,356.67 Z" id="Path" fill="#000000" opacity="0.1"></path>
            <path d="M443.01,354.46 L445.66,362.16 L431.76,376.16 C432.07,361.75 432.42,348.16 432.42,348.16 L427.59,318.89 C427.59,318.89 432.42,318.89 433.52,320.38 C434.010491,320.842906 434.546553,321.255004 435.12,321.61 L446.95,355.7 L443.01,354.46 Z" id="Path" fill="#FFFFFF"></path>
            <path d="M443.01,278.27 C443.01798,281.873518 442.450849,285.455222 441.33,288.88 C440.948308,288.939575 440.558751,288.842186 440.25,288.61 C439.99,279.61 435.56,271.16 430.11,263.97 C428.579885,261.799139 426.724847,259.876645 424.61,258.27 C422.471898,256.664149 419.812463,255.911949 417.15,256.16 C414.15,256.57 411.5,258.61 408.47,258.87 C404.47,259.2 400.89,256.43 396.92,256.29 C393.655017,256.321009 390.561537,257.756617 388.43,260.23 C386.344366,262.697303 384.794868,265.571538 383.88,268.67 C382.307691,273.368425 381.451435,278.276725 381.34,283.23 C381.29,286.03 381.02,289.54 378.42,290.56 C378.815711,286.396643 377.448264,282.258029 374.65,279.15 L374.59,279.09 C374.59,278.81 374.59,278.55 374.59,278.27 C374.378631,265.906741 380.85335,254.391084 391.526408,248.147632 C402.199465,241.90418 415.410535,241.90418 426.083592,248.147632 C436.75665,254.391084 443.231369,265.906741 443.02,278.27 L443.01,278.27 Z" id="Path" fill="#000000" opacity="0.1"></path>
            <path d="M422.97,223.94 C417.773575,221.495629 411.863293,221.033332 406.35,222.64 C403.58,223.46 400.97,224.79 398.16,225.46 C392.16,226.91 385.16,225.34 380.01,228.85 C377.15,230.85 375.43,234.01 373.83,237.08 L369.83,244.7 C367.65,248.87 365.45,253.11 364.54,257.7 C363.63,262.29 364.18,267.43 367.09,271.12 C369.21,273.81 372.34,275.5 374.64,278.03 C377.425496,281.140981 378.788102,285.272288 378.4,289.43 C381.01,288.43 381.26,284.91 381.32,282.11 C381.431435,277.156725 382.287691,272.248425 383.86,267.55 C384.77269,264.450641 386.32242,261.575976 388.41,259.11 C390.543139,256.638738 393.635603,255.203602 396.9,255.17 C400.9,255.31 404.49,258.07 408.45,257.74 C411.45,257.49 414.11,255.44 417.13,255.04 C419.792819,254.788044 422.45364,255.540636 424.59,257.15 C426.704177,258.754186 428.556268,260.677122 430.08,262.85 C435.54,270.04 439.97,278.47 440.23,287.49 C441.36,288.32 442.99,287.24 443.55,285.96 C444.11,284.68 444.13,283.18 444.84,281.96 C445.66,280.55 447.23,279.8 448.46,278.74 C451.58,276.05 452.36,271.52 452.24,267.41 C452.12,263.3 451.32,259.13 452.1,255.09 C452.57,252.61 453.63,250.29 454.21,247.84 C454.79,245.39 454.86,242.64 453.49,240.53 C451.49,237.43 447.28,236.82 443.61,236.53 C439.44,236.17 435.71,236.63 433.05,233.12 C431.801386,231.28835 430.39611,229.56856 428.85,227.98 C428.32,227.46 422.97,224.16 422.97,223.94 Z" id="Path" fill="#512E4E"></path>
            <path d="M314.28,434.82 L303.83,415.5 L300.52,445.31 C300.52,445.31 302.36,458.55 301.99,460.58 C301.62,462.61 309.53,480.81 309.53,480.81 C309.53,480.81 335.66,527.35 346.33,529.75 L382.38,503.99 L372.82,491.85 C372.82,491.85 369.51,490.56 368.68,491.85 C368.68,491.85 350.93,461.31 349.09,459.1 C347.25,456.89 347.61,452.48 347.61,452.48 C347.61,452.48 344.85,449.54 345.77,446.78 C346.69,444.02 340.44,434.45 340.44,434.45 L346.14,429.12 L314.28,434.82 Z" id="Path" fill="#000000" opacity="0.1"></path>
            <path d="M304.38,413.3 L301.62,415.5 L298.31,445.31 C298.31,445.31 300.15,458.55 299.78,460.58 C299.41,462.61 307.33,480.81 307.33,480.81 C307.33,480.81 333.45,527.35 344.12,529.75 L380.18,503.99 L370.61,491.85 C370.61,491.85 367.3,490.56 366.47,491.85 C366.47,491.85 348.72,461.31 346.88,459.1 C345.04,456.89 345.41,452.48 345.41,452.48 C345.41,452.48 342.65,449.54 343.57,446.78 C344.49,444.02 338.23,434.45 338.23,434.45 L343.93,429.12 L304.38,413.3 Z" id="Path" fill="#FFFFFF"></path>
            <path d="M475.65,530.08 C477.65,532.51 476.39,543.42 476.39,543.42 L470.87,552.56 C470.87,552.56 471.2,558.46 471.22,566.41 L461.94,569.31 C460.238315,569.841473 458.384647,569.516792 456.964907,568.438584 C455.545167,567.360376 454.734819,565.661895 454.79,563.88 L456.39,512.27 L478.04,520.55 C476.2,521.83 478.22,524.97 478.22,524.97 C478.22,524.97 473.63,527.65 475.65,530.08 Z" id="Path" fill="#000000" opacity="0.1"></path>
            <path d="M476.76,528.97 C478.76,531.4 477.5,542.32 477.5,542.32 L471.98,551.46 C471.98,551.46 472.31,557.35 472.34,565.31 L462.89,568.26 C461.223503,568.777866 459.409471,568.458459 458.020082,567.402523 C456.630694,566.346588 455.837244,564.68431 455.89,562.94 L457.5,511.17 L479.16,519.45 C477.31,520.73 479.33,523.86 479.33,523.86 C479.33,523.86 474.76,526.55 476.76,528.97 Z" id="Path" fill="#FFFFFF"></path>
            <path d="M483.93,504.37 C483.93,504.37 482.46,513.76 478.78,514.31 C475.1,514.86 473.45,529.5 469.78,528.98 C466.11,528.46 468.54,515.37 468.67,512.83 C468.8,510.29 464.67,499.77 467.76,497.38 C470.85,494.99 480.63,497.38 480.63,497.38 L483.93,504.37 Z" id="Path" fill="#CF6F80"></path>
            <path d="M491.76,432.06 L498.7,418.06 C498.7,418.06 501.46,428.73 501.46,434.43 C501.46,440.13 505.32,440.69 505.32,440.69 C505.32,440.69 509.55,445.69 507.32,449.33 C505.09,452.97 504.19,462.03 504.19,462.03 C504.19,462.03 504.92,479.32 501.61,481.71 C498.3,484.1 497.61,489.81 497.61,489.81 C497.61,489.81 491.53,500.66 491.72,503.24 C491.91,505.82 483.26,523.29 483.26,523.29 C483.26,523.29 487.49,501.58 462.84,492.2 C462.84,492.2 462.65,484.83 464.49,482.81 C466.33,480.79 469.2,479.87 467.4,469.66 C465.6,459.45 466.88,447.25 466.88,444.8 C466.88,442.35 472.4,427.07 472.4,427.07 L491.76,432.06 Z" id="Path" fill="#000000" opacity="0.1"></path>
            <path d="M494.76,416.06 L500.82,418.06 C500.82,418.06 503.59,428.73 503.59,434.43 C503.59,440.13 507.45,440.69 507.45,440.69 C507.45,440.69 511.68,445.69 509.45,449.33 C507.22,452.97 506.33,462.03 506.33,462.03 C506.33,462.03 507.06,479.32 503.75,481.71 C500.44,484.1 499.7,489.81 499.7,489.81 C499.7,489.81 493.63,500.66 493.82,503.24 C494.01,505.82 485.35,523.29 485.35,523.29 C485.35,523.29 489.59,501.58 464.93,492.2 C464.93,492.2 464.75,484.83 466.59,482.81 C468.43,480.79 471.3,479.87 469.5,469.66 C467.7,459.45 468.98,447.25 468.98,444.8 C468.98,442.35 474.5,427.07 474.5,427.07 L494.76,416.06 Z" id="Path" fill="#FFFFFF"></path>
            <path d="M360.91,778.93 C360.91,778.93 370.57,772.86 376.91,777.27 C383.25,781.68 360.91,778.93 360.91,778.93 Z" id="Path" fill="#000000" opacity="0.1"></path>
            <path d="M435.97,760.16 C435.97,760.16 444.52,759.06 451.7,766.79 C458.88,774.52 435.97,760.16 435.97,760.16 Z" id="Path" fill="#000000" opacity="0.1"></path>
            <g id="Group" opacity="0.1" transform="translate(364.000000, 243.000000)" fill="#000000">
                <path d="M84.48,33.55 C83.25,34.61 81.67,35.37 80.85,36.78 C80.15,37.99 80.13,39.48 79.57,40.78 C79.01,42.08 77.38,43.14 76.25,42.32 C75.99,33.32 71.55,24.87 66.1,17.67 C64.5762679,15.4971221 62.7241771,13.5741862 60.61,11.97 C58.4696951,10.360858 55.8058875,9.60843037 53.14,9.86 C50.14,10.27 47.5,12.31 44.47,12.56 C40.47,12.9 36.88,10.13 32.91,9.99 C29.6460442,10.0224847 26.5549749,11.4623107 24.43,13.94 C22.3424149,16.4022005 20.7926007,19.2736146 19.88,22.37 C18.3085757,27.068649 17.4523437,31.9768136 17.34,36.93 C17.28,39.72 17.02,43.2 14.44,44.24 C14.5000549,44.9787816 14.5000549,45.7212184 14.44,46.46 C17.04,45.46 17.3,41.94 17.36,39.14 C17.4714354,34.1867246 18.327691,29.2784252 19.9,24.58 C20.8126896,21.480641 22.36242,18.6059762 24.45,16.14 C26.5792411,13.6692222 29.6685183,12.2338741 32.93,12.2 C36.93,12.34 40.53,15.1 44.49,14.77 C47.49,14.52 50.15,12.47 53.16,12.07 C55.8258875,11.8184304 58.4896951,12.570858 60.63,14.18 C62.7441771,15.7841862 64.5962679,17.7071221 66.12,19.88 C71.57,27.07 76.01,35.5 76.27,44.52 C77.4,45.35 79.03,44.27 79.59,42.99 C80.15,41.71 80.17,40.21 80.87,38.99 C81.69,37.58 83.27,36.83 84.5,35.77 C87.62,33.08 88.4,28.55 88.28,24.44 C88.28,24.31 88.28,24.18 88.28,24.06 C88.09,27.62 87.14,31.25 84.48,33.55 Z" id="Path"></path>
                <path d="M10.66,32.84 C8.36,30.31 5.22,28.62 3.11,25.94 C1.33329379,23.5675234 0.318563653,20.7116335 0.2,17.75 C-0.114710726,21.4509361 0.918769008,25.1409205 3.11,28.14 C5.22,30.83 8.36,32.52 10.66,35.05 C12.868291,37.5247525 14.1940803,40.6616332 14.43,43.97 C14.7393392,39.9016718 13.378074,35.8828702 10.66,32.84 Z" id="Path"></path>
                <path d="M90.23,2.65 C89.64,5.1 88.59,7.43 88.11,9.9 C87.8257163,11.5505007 87.7217719,13.2270235 87.8,14.9 C87.8334669,13.9470063 87.9370805,12.9977718 88.11,12.06 C88.59,9.58 89.64,7.26 90.23,4.81 C90.5738696,3.45868117 90.6854599,2.05872916 90.56,0.67 C90.4978616,1.33709048 90.3875741,1.99881548 90.23,2.65 Z" id="Path"></path>
            </g>
            <ellipse id="Oval" fill="#99d1d4" opacity="0.1" cx="180.73" cy="803.94" rx="97.44" ry="15.65"></ellipse>
            <rect id="Rectangle" fill="#535461" x="177.6" y="504.14" width="6.27" height="141.17"></rect>
            <path d="M223.27,644.88 L222.88,651.24 L222.32,660.24 L222.09,663.98 L221.54,672.98 L221.3,676.72 L220.74,685.72 L214.42,787.79 C213.849863,796.904939 206.292752,804.006697 197.16,804.01 L164.3,804.01 C155.169139,804.006377 147.615067,796.90336 147.05,787.79 L140.76,685.65 L140.2,676.65 L139.97,672.91 L139.41,663.91 L139.18,660.17 L138.62,651.17 L138.22,644.81 C138.079577,642.335982 138.965427,639.913525 140.668713,638.113719 C142.372,636.313913 144.742003,635.296018 147.22,635.3 L214.43,635.3 C216.898791,635.321275 219.248877,636.36255 220.923156,638.176983 C222.597435,639.991417 223.446835,642.417458 223.27,644.88 Z" id="Path" fill="#3F3D56"></path>
            <polygon id="Path" fill="#9D9CB5" points="222.88 651.24 222.32 660.21 139.14 660.21 138.58 651.24"></polygon>
            <polygon id="Path" fill="#9D9CB5" points="222.09 663.95 221.54 672.93 139.93 672.93 139.37 663.95"></polygon>
            <polygon id="Path" fill="#9D9CB5" points="221.3 676.68 220.75 685.65 140.72 685.65 140.16 676.68"></polygon>
            <path d="M129.01,557.05 C165.52,583.47 180.76,624.79 180.76,624.79 C180.76,624.79 136.76,623.28 100.24,596.86 C63.72,570.44 48.51,529.13 48.51,529.13 C48.51,529.13 92.49,530.63 129.01,557.05 Z" id="Path" fill="#99d1d4"></path>
            <path d="M48.48,529.13 C48.48,529.13 94.16,554.48 108.81,575.47 C123.46,596.46 180.76,624.79 180.76,624.79" id="Path" stroke="#535461" stroke-width="2"></path>
            <path d="M152.58,503.83 C172.45,518.2 180.76,540.69 180.76,540.69 C180.76,540.69 156.81,539.87 136.93,525.5 C117.05,511.13 108.76,488.63 108.76,488.63 C108.76,488.63 132.7,489.45 152.58,503.83 Z" id="Path" fill="#99d1d4"></path>
            <path d="M108.76,488.63 C108.76,488.63 133.62,502.43 141.59,513.85 C149.56,525.27 180.76,540.69 180.76,540.69" id="Path" stroke="#535461" stroke-width="2"></path>
            <path d="M209.61,539.55 C186.78,564.64 181.95,597.43 181.95,597.43 C181.95,597.43 214.14,589.53 236.95,564.43 C259.76,539.33 264.61,506.55 264.61,506.55 C264.61,506.55 232.44,514.46 209.61,539.55 Z" id="Path" fill="#99d1d4"></path>
            <path d="M264.63,506.56 C264.63,506.56 234.89,532.28 227.33,550 C219.77,567.72 181.95,597.43 181.95,597.43" id="Path" stroke="#535461" stroke-width="2"></path>
            <path d="M1047.67,530.72 C1047.67,530.72 1031.16,448.58 1037.48,438.36 C1037.48,438.36 1037.71,428.86 1037.33,416.75 C1037.33,416.29 1037.33,415.83 1037.33,415.36 C1038.44199,416.101341 1039.60111,416.769423 1040.8,417.36 C1046.62296,420.351614 1053.30819,421.214681 1059.7,419.8 L1054.7,414.23 C1053.5,412.9 1052.25,411.46 1051.99,409.7 C1051.73,407.94 1052.45,406.37 1053.07,404.8 C1057.82,392.8 1058.07,377.71 1048.92,368.55 C1041.19,360.85 1039.31,350.91 1030.92,343.88 C1024.79,338.73 1021.42,331.18 1018.24,323.88 C1015.55,317.71 1012.84,311.49 1011.3,304.95 C1010.1,299.84 1009.62,294.55 1007.97,289.56 C1006.32,284.57 1003.23,279.72 998.4,277.49 C996.68,276.7 994.77,276.25 993.2,275.2 C991.14,273.81 989.9,271.55 988.41,269.57 C980.84,259.57 955.49,265.46 943.49,269.52 C940.22766,270.542423 937.206709,272.216193 934.61,274.44 L934.72,274.26 C934.81,274.11 934.92,273.96 935.02,273.81 C933.706508,274.872106 932.57207,276.13822 931.66,277.56 C929.91,280.33 929.18,283.56 927.72,286.56 C925.96,290.11 916.17,300.02 920.38,304.01 C920.675043,304.277956 921.013103,304.494315 921.38,304.65 C922.960472,305.307758 924.700576,305.481768 926.38,305.15 L926.2,305.58 C924.762185,309.100323 924.02508,312.867374 924.03,316.67 C924.03,333.1 937.58,346.42 954.31,346.42 C957.455164,346.423039 960.58196,345.940696 963.58,344.99 C963.65,345.37 963.71,345.75 963.78,346.13 C963.78,346.28 963.83,346.43 963.85,346.58 L963.32,347.32 C963.293478,347.274359 963.263384,347.23089 963.23,347.19 L947.53,369.13 C945.13,370.82 931.31,380.82 930.53,388.32 C929.71,396.53 928.89,406.14 928.89,406.14 L928.78,408.2 C927.391368,409.360339 925.563935,409.853746 923.78,409.55 C918.88,408.75 918.88,427.55 918.88,427.55 C918.88,427.55 915.62,430.55 913.38,427.95 C911.14,425.35 905.22,434.16 905.22,434.16 L868.12,435.76 L867.27,435.81 L865.27,429.62 C864.822016,428.261118 863.36349,427.516244 862,427.95 C861.845085,428.000996 861.694586,428.06454 861.55,428.14 L861.41,428.22 L861.15,428.4 L861.02,428.52 C860.948339,428.585068 860.881497,428.655253 860.82,428.73 L860.7,428.87 L860.64,428.93 C860.171669,429.577371 860.038097,430.408485 860.28,431.17 L862,436.48 C854.84,437.92 847.52,441.98 853.49,453.16 L823.23,447.57 L833.02,455.79 L883.56,466.22 C882.89,467.42 883.33,469.16 885.42,471.61 C894.42,482.18 910.82,485.05 917.42,485.79 C919.162981,489.68896 921.340069,493.37894 923.91,496.79 L923.34,507.32 C923.34,507.32 906.63,587.58 903.57,591.65 C905.114766,589.899644 906.528586,588.037947 907.8,586.08 C902.95,602.57 896.17,625.14 894.39,628.52 C891.53,633.92 888.88,655.77 892.14,657.17 C893.14,657.6 896,657.39 900.08,657.08 L900.08,658.89 L899.9,727.48 C899.9,727.48 900.72,769.55 898.47,773.56 C896.22,777.57 895.62,785.98 895.62,785.98 C895.62,785.98 886.62,802.57 879.49,809.24 C879.441447,809.291863 879.387849,809.338761 879.33,809.38 L879.11,807.82 C879.11,807.82 870.54,818.64 851.58,818.03 C851.58,818.03 840.17,825.45 857.09,825.85 C874.01,826.25 895.62,825.25 895.62,825.25 C895.62,825.25 910.71,802.25 923.35,805.25 L923.35,822.68 L927.22,822.68 L927.22,804.97 C930.84684,802.582333 933.336935,798.812855 934.11,794.54 C934.783926,790.105775 933.065187,785.645419 929.59,782.81 C928.038663,781.407584 927.143314,779.421142 927.12,777.33 L926.98,777.45 C926.98,777.1 926.89,776.74 926.85,776.37 C925.74,767.37 924.35,748.8 929.26,735.06 C935.99,716.22 938.03,689.98 933.13,674.36 C931.548964,669.367007 930.250243,664.288975 929.24,659.15 C929.12,658.5 929.01,657.88 928.91,657.3 C932.259445,657.75315 935.576287,658.421194 938.84,659.3 C950.19,662.43 975.02,663.01 996.22,662.84 C996.27,663.42 996.33,664.03 996.4,664.64 C996.777953,668.880107 997.568358,673.073272 998.76,677.16 C1001.42,685.16 1002.64,720.43 1002.64,720.43 C1002.64,720.43 1006.07,749.43 1004.2,761.23 C1003.2,767.79 1002.2,774.38 1001.63,781 L1001.63,781.13 C1001.63,781.13 996.01,797.13 991.9,805.82 C991.8,806.04 991.69,806.26 991.59,806.47 C990.494265,806.569871 989.415643,806.808445 988.38,807.18 C988.38,807.18 982.87,818.18 977.38,820 C971.89,821.82 973.71,827.81 986.14,825.61 C998.57,823.41 1017.34,821.61 1017.34,821.61 L1018.15,810.39 L1021.97,805.61 L1020.97,816.8 L1025.04,816 L1024.5,802.39 L1030.75,794.57 C1030.75,794.57 1038.3,787.85 1027.08,774.63 L1027.08,774.92 C1026.96,774.73 1026.85,774.53 1026.72,774.34 L1026.72,774.28 C1024.86,771.4 1023.38,766.03 1026.09,756.5 C1030.99,739.28 1033.84,723.65 1033.84,723.65 C1033.84,723.65 1044.78,681.78 1031.63,661.97 L1032.21,661.97 C1030.86238,659.182403 1029.90988,656.220574 1029.38,653.17 C1029.31333,652.81 1029.25333,652.44 1029.2,652.06 C1038.93,651.5 1048.48,649.74 1056.27,645.94 C1056.24,645.9 1051.55,546.54 1047.67,530.72 Z M924.14,461.42 L924.14,461.62 L922.14,461.72 L924.14,461.42 Z M917.28,462.37 C916.951152,462.442876 916.643312,462.589955 916.38,462.8 C915.520191,464.016613 914.980287,465.429993 914.81,466.91 L911.69,466.21 C911.69,466.21 909.5,465.74 906.35,465.21 L904.86,463.71 C908.96,463.37 913.22,462.87 917.28,462.37 Z" id="Shape" fill="url(#linearGradient-2)" fill-rule="nonzero"></path>
            <polygon id="Path" fill="#183d62" points="1020.51 802.53 1019.32 816.7 1023.31 815.9 1022.71 800.53"></polygon>
            <path d="M929.48,735.25 C924.67,748.95 926.03,767.44 927.11,776.42 C927.51,779.74 927.88,781.76 927.88,781.76 C927.88,781.76 920.69,798.14 920.09,798.76 C919.49,799.38 898.93,811.93 898.93,811.93 L884.56,820.32 C884.56,820.32 869.98,813.93 876.97,811.73 C878.398174,811.156872 879.684581,810.279931 880.74,809.16 C887.74,802.51 896.53,785.98 896.53,785.98 C896.53,785.98 897.13,777.59 899.33,773.6 C901.53,769.61 900.73,727.68 900.73,727.68 L900.9,659.33 L900.9,650.42 L928.25,650.62 C928.422511,653.644839 928.816905,656.652927 929.43,659.62 C930.41169,664.74145 931.683743,669.80295 933.24,674.78 C938.06,690.37 936.06,716.48 929.48,735.25 Z" id="Path" fill="#FFB0B1"></path>
            <path d="M927.88,781.76 C927.88,781.76 920.69,798.14 920.09,798.76 C919.49,799.38 898.93,811.93 898.93,811.93 L884.56,820.32 C884.56,820.32 869.98,813.93 876.97,811.73 C878.398174,811.156872 879.684581,810.279931 880.74,809.16 L881.36,813.53 L886.15,813.33 L927.15,776.44 C927.51,779.74 927.88,781.76 927.88,781.76 Z" id="Path" fill="#000000" opacity="0.1"></path>
            <path d="M927.38,777.37 L886.15,814.51 L881.36,814.71 L880.36,807.71 C880.36,807.71 871.98,818.49 853.36,817.89 C853.36,817.89 842.18,825.28 858.75,825.68 C875.32,826.08 896.48,825.08 896.48,825.08 C896.48,825.08 911.26,802.08 923.63,805.08 L923.63,822.45 L927.43,822.45 L927.43,804.92 C931.000071,802.516699 933.434495,798.760317 934.17,794.52 C934.839145,790.123837 933.167667,785.696887 929.76,782.84 C928.247467,781.422059 927.386476,779.443227 927.38,777.37 Z" id="Path" fill="#183d62"></path>
            <path d="M1024.31,756.61 C1021.65,766.11 1023.1,771.46 1024.92,774.33 L1024.92,774.39 C1027.25432,777.933598 1028.87774,781.897066 1029.7,786.06 L1029.86,786.96 L1011.1,814.31 L1000.92,818.31 C1000.92,818.31 984.55,812.72 987.54,811.12 C988.29,810.73 989.46,808.65 990.8,805.78 C994.8,797.13 1000.32,781.17 1000.32,781.17 L1000.32,781.04 C1000.9,774.45 1001.82,767.88 1002.84,761.34 C1004.67,749.57 1001.31,720.68 1001.31,720.68 C1001.31,720.68 1000.11,685.55 997.51,677.56 C996.3362,673.497647 995.555939,669.331791 995.18,665.12 C994.64,660.12 994.52,656 994.52,656 C994.52,656 1005.3,641 1025.06,657.2 C1026.64015,658.492048 1028.03047,660.000191 1029.19,661.68 C1042.84,681.1 1031.85,723.88 1031.85,723.88 C1031.85,723.88 1029.1,739.44 1024.31,756.61 Z" id="Path" fill="#FFB0B1"></path>
            <path d="M1029.89,786.96 L1011.13,814.31 L1000.95,818.31 C1000.95,818.31 984.58,812.72 987.57,811.12 C988.32,810.73 989.49,808.65 990.83,805.78 C997.76,805.72 1001.35,812.32 1001.35,812.32 L1010.13,810.92 C1010.13,810.92 1021.71,788.16 1024.31,786.77 C1026.91,785.38 1024.71,776.38 1024.71,776.38 L1024.71,774.09 C1024.78,774.17 1024.84,774.26 1024.92,774.34 L1024.92,774.4 C1027.25432,777.943598 1028.87774,781.907066 1029.7,786.07 L1029.89,786.96 Z" id="Path" fill="#000000" opacity="0.1"></path>
            <path d="M1001.95,812.91 C1001.95,812.91 996.95,803.73 987.37,807.12 C987.37,807.12 981.98,818.12 976.59,819.9 C971.2,821.68 973,827.68 985.18,825.49 C997.36,823.3 1015.72,821.49 1015.72,821.49 L1016.52,810.3 L1028.9,794.53 C1028.9,794.53 1036.28,787.84 1025.3,774.67 L1025.3,776.96 C1025.3,776.96 1027.5,785.96 1024.9,787.35 C1022.3,788.74 1010.76,811.51 1010.76,811.51 L1001.95,812.91 Z" id="Path" fill="#183d62"></path>
            <path d="M928.28,650.6 C928.452511,653.624839 928.846905,656.632927 929.46,659.6 C918.2,657.95 907.75,658.77 900.9,659.31 L900.9,650.4 L928.28,650.6 Z" id="Path" fill="#000000" opacity="0.1"></path>
            <path d="M1030.3,664.17 C1030.3,664.17 1014.3,664.95 995.22,665.11 C994.68,660.11 994.56,655.99 994.56,655.99 C994.56,655.99 1005.34,640.99 1025.1,657.19 C1026.68015,658.482048 1028.07047,659.990191 1029.23,661.67 C1029.53992,662.522576 1029.89714,663.357205 1030.3,664.17 Z" id="Path" fill="#000000" opacity="0.1"></path>
            <path d="M1030.3,662.37 C1030.3,662.37 960.22,665.76 938.86,659.77 C917.5,653.78 896.33,658.97 893.14,657.58 C889.95,656.19 892.54,634.42 895.34,629.03 C898.14,623.64 913.5,569.13 913.5,569.13 L928.28,492.07 L943.85,487.78 L944.95,487.47 L972.08,479.99 L991.96,474.5 C991.96,474.5 1031.49,628.83 1028.1,640.21 C1026.86893,644.567644 1026.67034,649.152228 1027.52,653.6 C1028.03793,656.637514 1028.97346,659.588805 1030.3,662.37 Z" id="Path" fill="#183d62"></path>
            <path d="M876.76,439.37 C876.76,439.37 862.76,454.37 873.36,462.73 C883.96,471.09 890.93,463.53 890.93,463.53 L876.76,439.37 Z" id="Path" fill="#C7DAF5"></path>
            <path d="M876.76,439.37 C876.76,439.37 862.76,454.37 873.36,462.73 C883.96,471.09 890.93,463.53 890.93,463.53 L876.76,439.37 Z" id="Path" fill="#000000" opacity="0.1"></path>
            <path d="M989.87,340.75 C989.87,340.75 988.23,342.31 985.76,344.61 C982.24,347.9 977.03,352.71 972.41,356.74 C966.01,362.31 960.73,366.4 962.62,362.91 C964.51,359.42 964.15,353.34 963.21,347.65 C963.14,347.27 963.08,346.89 963.01,346.52 C962.231616,342.341147 961.19971,338.213522 959.92,334.16 C959.92,334.16 970.26,320.8 975.98,315.53 C978.11,313.53 979.6,312.71 979.69,314.1 C979.79,315.97 981.19,320.1 982.93,324.48 C982.98,324.62 983.03,324.75 983.09,324.89 C984.25,327.89 985.56,330.97 986.71,333.63 C988.47,337.71 989.87,340.75 989.87,340.75 Z" id="Path" fill="#FFB0B1"></path>
            <path d="M983.09,324.89 C981.110827,335.534872 973.492049,344.257376 963.21,347.65 C962.414871,343.085105 961.315759,338.57841 959.92,334.16 C959.92,334.16 979.39,309.01 979.69,314.1 C979.76,316.03 981.28,320.31 983.09,324.89 Z" id="Path" fill="#000000" opacity="0.1"></path>
            <path d="M961.27,354.37 L963.79,350.82 C963.79,350.82 965.46,361 971.6,356.51 C977.74,352.02 978.04,390.3 978.04,390.3 L971.45,488.83 L923.83,485.98 L925.18,438.37 L930.57,414.37 L943.9,379.48 L951.83,367.95 L961.27,354.37 Z" id="Path" fill="#000000" opacity="0.1"></path>
            <path d="M978.04,390.91 L972.04,480 L971.41,489.44 L944.86,487.85 L943.86,487.79 L923.86,486.59 L925.21,438.97 L930.6,414.97 L943.93,380.08 L951.86,368.55 L961.3,354.92 L963.82,351.38 C963.82,351.38 965.49,361.56 971.63,357.07 L971.76,356.98 C977.76,353.18 978.04,390.91 978.04,390.91 Z" id="Path" fill="#183d62"></path>
            <path d="M931.27,406.63 C931.27,406.63 928.88,411.63 924.08,410.82 C919.28,410.01 919.29,428.82 919.29,428.82 C919.29,428.82 916.1,431.82 913.9,429.22 C911.7,426.62 905.9,435.41 905.9,435.41 L869.56,437.01 C869.56,437.01 885.73,444.4 882.56,466.76 C882.56,466.76 937.46,463.36 939.26,458.17 C941.06,452.98 931.27,406.63 931.27,406.63 Z" id="Path" fill="#FFFFFF"></path>
            <path d="M931.27,406.63 C931.27,406.63 928.88,411.63 924.08,410.82 C919.28,410.01 919.29,428.82 919.29,428.82 C919.29,428.82 916.1,431.82 913.9,429.22 C911.7,426.62 905.9,435.41 905.9,435.41 L869.56,437.01 C869.56,437.01 885.73,444.4 882.56,466.76 C882.56,466.76 937.46,463.36 939.26,458.17 C941.06,452.98 931.27,406.63 931.27,406.63 Z" id="Path" fill="#000000" opacity="0.03"></path>
            <polygon id="Path" fill="#FFFFFF" points="825.66 448.76 835.24 456.94 914.1 473.51 904.32 463.53"></polygon>
            <path d="M961.42,357.52 C960.11,359.52 956.36,369.76 953.23,378.7 C950.62,386.15 948.44,392.7 948.44,392.7 C948.44,392.7 943.35,425.84 940.75,431.83 C938.15,437.82 939.56,461.18 939.56,461.18 L929.87,518.87 C929.87,518.87 925.48,548.62 918.7,566.39 C912.01,583.88 904.56,592.08 904.33,592.34 C907.33,588.28 923.68,508.34 923.68,508.34 L929.08,407.52 C929.08,407.52 929.87,397.94 930.67,389.75 C931.47,381.56 947.67,370.38 947.67,370.38 L963.29,348.17 C964.86,350.27 963.81,353.93 961.42,357.52 Z" id="Path" fill="#FFFFFF"></path>
            <path d="M920.69,487.09 C920.69,487.09 897.69,486.09 886.55,472.71 C875.41,459.33 912.3,467.37 912.3,467.37 L921.89,469.57 L920.69,487.09 Z" id="Path" fill="#FFB0B1"></path>
            <path d="M1028.1,640.22 C1026.86893,644.577644 1026.67034,649.162228 1027.52,653.61 C1002.43,655.39 975.59,648.61 975.59,648.61 C970.59,653.21 957.42,659.99 957.42,659.99 L950.24,570.99 C945.65,558.99 943.85,496.12 943.85,496.12 C943.85,496.12 944.26,492.83 944.85,487.9 C944.85,487.78 944.85,487.65 944.9,487.53 C946.69,473.76 950.24,447.91 951.98,444.42 C954.38,439.62 944.6,426.85 944.6,426.85 L949.05,388.9 L949.59,384.32 C958.97,380.13 966.16,366.75 966.16,366.75 L971.68,357.08 C977.68,353.23 977.99,390.96 977.99,390.96 L971.99,480.05 L991.87,474.56 C991.87,474.56 1031.49,628.84 1028.1,640.22 Z" id="Path" fill="#000000" opacity="0.1"></path>
            <path d="M1053.85,646.37 C1026.5,659.95 976.79,647.37 976.79,647.37 C971.79,651.97 958.62,658.75 958.62,658.75 L951.43,569.75 C946.85,557.75 945.05,494.88 945.05,494.88 C945.05,494.88 950.83,447.97 953.23,443.18 C953.93,441.78 953.59,439.7 952.76,437.46 C948.67937,426.798286 947.17851,415.322537 948.38,403.97 L950.3,387.66 L950.83,383.09 C960.22,378.89 967.41,365.51 967.41,365.51 L972.41,356.75 L981.61,340.61 L985.97,332.97 L986.71,333.64 L992.36,338.76 C992.36,338.76 994.76,340.76 998.36,343.76 C1006.19,350.36 1019.72,361.98 1026.7,369.09 C1032.84,375.35 1034.78,399.7 1035.34,418.03 C1035.71,430.1 1035.49,439.56 1035.49,439.56 C1029.3,449.75 1045.49,531.56 1045.49,531.56 C1049.26,547.37 1053.85,646.37 1053.85,646.37 Z" id="Path" fill="#FFFFFF"></path>
            <path d="M1001.35,365.31 C1001.35,365.31 982.58,401.04 984.76,414.62 C986.94,428.2 993.14,443.57 990.15,447.16 C988.067498,449.917123 984.815209,451.541418 981.36,451.55 C978.36,451.75 970.36,457.34 970.36,457.94 C970.36,458.54 962.97,458.54 956.36,461.34 C949.75,464.14 939.99,465.73 939.99,465.73 C939.99,465.73 920.99,465.13 919.22,466.93 C917.45,468.73 915.63,479.5 919.42,488.09 C923.21,496.68 927.42,503.09 930.6,504.26 C933.78,505.43 953.96,498.67 970.33,497.07 C986.7,495.47 1004.47,482.5 1004.47,482.5 C1004.47,482.5 1024.04,475.5 1027.47,463.73 C1030.9,451.96 1023.28,387.27 1023.28,387.27 C1023.28,387.27 1017.52,357.12 1001.35,365.31 Z" id="Path" fill="#000000" opacity="0.03"></path>
            <path d="M998.95,362.31 C998.95,362.31 980.18,398.05 982.38,411.62 C984.58,425.19 990.76,440.57 987.76,444.17 C985.684741,446.930473 982.433534,448.556077 978.98,448.56 C975.98,448.76 967.98,454.35 967.98,454.95 C967.98,455.55 960.59,455.55 953.98,458.34 C947.37,461.13 937.61,462.73 937.61,462.73 C937.61,462.73 918.61,462.13 916.85,463.93 C915.09,465.73 913.25,476.51 917.05,485.09 C920.85,493.67 925.05,500.09 928.23,501.26 C931.41,502.43 951.59,495.67 967.96,494.08 C984.33,492.49 1002.1,479.5 1002.1,479.5 C1002.1,479.5 1021.66,472.5 1025.05,460.74 C1028.44,448.98 1020.86,384.27 1020.86,384.27 C1020.86,384.27 1015.12,354.13 998.95,362.31 Z" id="Path" fill="#000000" opacity="0.03"></path>
            <path d="M1000.76,363.51 C1000.76,363.51 981.99,399.25 984.19,412.82 C986.39,426.39 992.57,441.77 989.58,445.36 C987.504714,448.127051 984.248811,449.756855 980.79,449.76 C977.79,449.96 969.79,455.55 969.79,456.14 C969.79,456.73 962.41,456.74 955.79,459.54 C949.17,462.34 939.42,463.93 939.42,463.93 C939.42,463.93 920.42,463.33 918.65,465.13 C916.88,466.93 915.06,477.71 918.85,486.29 C922.64,494.87 926.85,501.29 930.03,502.46 C933.21,503.63 953.39,496.87 969.76,495.27 C986.13,493.67 1003.9,480.7 1003.9,480.7 C1003.9,480.7 1023.47,473.7 1026.9,461.93 C1030.33,450.16 1022.76,385.47 1022.76,385.47 C1022.76,385.47 1016.92,355.37 1000.76,363.51 Z" id="Path" fill="#FFFFFF"></path>
            <path d="M1000.35,459.37 C1000.35,459.37 985.35,456.37 990.57,461.37 C995.79,466.37 995.76,470.75 1002.15,470.55 C1008.54,470.35 1000.35,459.37 1000.35,459.37 Z" id="Path" fill="#000000" opacity="0.1"></path>
            <path d="M1025.7,566.95 C1025.7,566.95 1018.92,571.54 1031.89,582.12 C1044.86,592.7 1025.7,566.95 1025.7,566.95 Z" id="Path" fill="#000000" opacity="0.1"></path>
            <path d="M1012.76,604.68 C1012.76,605.28 1010.36,626.68 1019.34,632.03 C1028.32,637.38 1012.76,604.68 1012.76,604.68 Z" id="Path" fill="#000000" opacity="0.1"></path>
            <path d="M870.18,436.96 C862.94,437.21 847.3,439.42 855.41,454.55 C862.58,467.94 874.63,458.99 881.41,452.2 C879.756131,445.869471 875.736623,440.414681 870.18,436.96 Z" id="Path" fill="#FFB0B1"></path>
            <g id="Group" transform="translate(0.760000, 0.370000)"></g>
            <path d="M881.5,452.08 L881.8,451.77 L881.5,452.08 Z" id="Path" fill="#FFB0B1"></path>
            <path d="M998.36,344.37 C990.68,349.62 984.24,354.05 982.98,354.97 C979.54,357.52 972.98,372.49 968.75,380.13 C965.38,386.28 954.43,387.86 950.3,388.25 L950.83,383.68 C960.22,379.48 967.41,366.1 967.41,366.1 L985.97,333.56 L992.36,339.37 C992.36,339.37 994.76,341.37 998.36,344.37 Z" id="Path" fill="#000000" opacity="0.1"></path>
            <path d="M998.36,343.77 C990.68,349.02 984.24,353.45 982.98,354.38 C979.54,356.92 972.98,371.89 968.75,379.53 C965.38,385.68 954.43,387.26 950.3,387.65 L950.83,383.08 C960.22,378.88 967.41,365.5 967.41,365.5 L985.97,332.96 L992.36,338.75 C992.36,338.75 994.76,340.73 998.36,343.77 Z" id="Path" fill="#DCE7FF"></path>
            <path d="M983.58,318.29 C983.584198,324.292922 981.763743,330.155344 978.36,335.1 C970.052772,347.181571 954.164368,351.380376 940.972999,344.980207 C927.78163,338.580039 921.246114,323.501631 925.594279,309.499208 C929.942444,295.496785 943.869375,286.772569 958.365738,288.970257 C972.862101,291.167945 983.57744,303.627996 983.58,318.29 Z" id="Path" fill="#FFB0B1"></path>
            <path d="M1035.34,418.04 C1031.27901,415.541874 1027.9716,411.989089 1025.77,407.76 C1024.1,404.46 1022.99,400.65 1020.14,398.31 C1017.57,396.21 1014.14,395.7 1010.94,394.76 C1000.42,391.65 991.6,382.05 991.27,371.09 C991.11,365.93 992.72,360.78 991.99,355.67 C991.57495,352.777949 990.424967,350.040715 988.65,347.72 C987.768642,346.610071 986.802403,345.570277 985.76,344.61 C984.36,343.29 982.89,342.01 981.61,340.61 C980.803656,339.74315 980.09908,338.786939 979.51,337.76 C979.034415,336.919629 978.648942,336.031366 978.36,335.11 C976.36,328.99 978.18,321.73 975.98,315.54 L975.86,315.2 C975.03,313 973.34,310.8 970.99,310.63 C968.64,310.46 966.63,312.41 964.39,313.28 C959.7,315.1 954.64,312 950.73,308.84 C946.82,305.68 942.41,302.07 937.44,302.77 C934.15,303.24 931.55,305.48 928.52,306.64 C927.835928,306.904851 927.12987,307.108972 926.41,307.25 C931.699129,294.059564 945.603604,286.476917 959.556712,289.173818 C973.509819,291.870719 983.587175,304.088651 983.58,318.3 C983.583342,320.38054 983.36545,322.455537 982.93,324.49 C982.98,324.63 983.03,324.76 983.09,324.9 C984.25,327.9 985.56,330.98 986.71,333.64 L992.36,338.76 C992.36,338.76 994.76,340.76 998.36,343.76 C1006.19,350.36 1019.72,361.98 1026.7,369.09 C1032.84,375.37 1034.76,399.71 1035.34,418.04 Z" id="Path" fill="#000000" opacity="0.1"></path>
            <path d="M928.17,288.37 C929.6,285.46 930.31,282.2 932.02,279.44 C934.53,275.44 938.91,272.88 943.41,271.33 C955.16,267.28 979.99,261.4 987.41,271.33 C988.87,273.33 990.08,275.55 992.1,276.93 C993.64,277.98 995.5,278.43 997.19,279.22 C1001.92,281.44 1004.94,286.28 1006.55,291.22 C1008.16,296.16 1008.64,301.46 1009.82,306.55 C1011.33,313.08 1013.98,319.27 1016.62,325.42 C1019.73,332.68 1023.03,340.21 1029.03,345.34 C1037.22,352.34 1039.03,362.25 1046.63,369.93 C1055.63,379.05 1055.34,394.1 1050.7,406.05 C1050.09,407.62 1049.4,409.26 1049.64,410.93 C1049.88,412.6 1051.12,414.12 1052.29,415.45 L1057.21,421 C1045.57,423.81 1032.4,417.73 1026.98,407.06 C1025.31,403.76 1024.2,399.96 1021.34,397.61 C1018.78,395.51 1015.34,395.01 1012.15,394.07 C1001.63,390.95 992.81,381.34 992.48,370.38 C992.32,365.23 993.93,360.08 993.2,354.98 C992.793799,352.068543 991.639569,349.312172 989.85,346.98 C987.1,343.39 982.95,340.98 980.71,336.98 C976.92,330.29 979.8,321.6 977.07,314.42 C976.23,312.22 974.55,310.02 972.2,309.85 C969.85,309.68 967.84,311.63 965.59,312.5 C960.91,314.32 955.85,311.23 951.94,308.06 C948.03,304.89 943.62,301.29 938.64,302 C935.35,302.46 932.76,304.7 929.73,305.87 C927.49,306.73 922.95,307.5 920.99,305.61 C916.85,301.8 926.44,291.93 928.17,288.37 Z" id="Path" fill="#591D4B"></path>
            <path d="M1029.76,403.76 C1028.08,400.46 1026.98,396.66 1024.12,394.32 C1021.56,392.22 1018.12,391.71 1014.92,390.77 C1004.41,387.66 995.59,378.05 995.25,367.09 C995.09,361.94 996.7,356.78 995.98,351.68 C995.561138,348.787242 994.407766,346.050138 992.63,343.73 C989.87,340.14 985.72,337.73 983.49,333.73 C979.7,327.05 982.58,318.36 979.84,311.17 C979.01,308.98 977.32,306.78 974.98,306.6 C972.64,306.42 970.61,308.39 968.37,309.26 C963.69,311.08 958.62,307.98 954.72,304.82 C950.82,301.66 946.39,298.05 941.42,298.75 C938.13,299.22 935.53,301.46 932.51,302.62 C930.27,303.48 925.72,304.26 923.76,302.37 C919.64,298.37 929.23,288.52 930.95,284.98 C932.38,282.06 933.09,278.81 934.81,276.05 C934.9,275.9 935,275.75 935.1,275.6 C933.813421,276.665836 932.703098,277.928027 931.81,279.34 C930.1,282.1 929.39,285.34 927.96,288.27 C926.23,291.81 916.64,301.69 920.77,305.66 C922.77,307.56 927.27,306.78 929.51,305.92 C932.51,304.75 935.13,302.51 938.42,302.05 C943.42,301.34 947.82,304.95 951.72,308.11 C955.62,311.27 960.72,314.37 965.38,312.55 C967.62,311.68 969.58,309.72 971.98,309.9 C974.38,310.08 975.98,312.27 976.85,314.47 C979.58,321.65 976.7,330.34 980.49,337.03 C982.73,340.96 986.88,343.42 989.63,347.03 C991.419569,349.362172 992.573799,352.118543 992.98,355.03 C993.71,360.13 992.1,365.28 992.26,370.43 C992.59,381.43 1001.41,391 1011.93,394.12 C1015.1,395.06 1018.56,395.56 1021.12,397.66 C1023.99,400.01 1025.12,403.81 1026.76,407.11 C1032.18,417.78 1045.35,423.86 1056.99,421.05 L1054.67,418.43 C1044.58,418.58 1034.37,412.84 1029.76,403.76 Z" id="Path" fill="#000000" opacity="0.1"></path>
            <path d="M960.82,358.12 C959.51,360.12 955.76,370.36 952.63,379.3 C949.7,378.16 947.04,370.89 947.04,370.89 L962.66,348.67 C964.26,350.87 963.21,354.52 960.82,358.12 Z" id="Path" fill="#000000" opacity="0.1"></path>
            <path d="M961.42,357.52 C960.11,359.52 956.36,369.76 953.23,378.7 C950.3,377.57 947.64,370.29 947.64,370.29 L963.26,348.08 C964.86,350.27 963.81,353.93 961.42,357.52 Z" id="Path" fill="#DCE7FF"></path>
            <path d="M870.6,459.68 L861.94,432.37 C861.732966,431.724215 861.791698,431.02256 862.103209,430.42018 C862.414721,429.817799 862.95335,429.364316 863.6,429.16 C864.94149,428.741195 866.369788,429.482125 866.8,430.82 L875.46,458.1 L874.6,463.81 L870.6,459.68 Z" id="Path" fill="#BE8B87"></path>
            <path d="M862.76,429.97 C864.104578,429.544736 865.539866,430.286972 865.97,431.63 L874.63,458.91 L873.98,463.19 L874.61,463.85 L875.47,458.14 L866.76,430.86 C866.329788,429.522125 864.90149,428.781195 863.56,429.2 C863.01768,429.37593 862.549608,429.727863 862.23,430.2 C862.399986,430.108775 862.577264,430.031844 862.76,429.97 Z" id="Path" fill="#FFFFFF" opacity="0.1"></path>
            <polygon id="Path" fill="#EFC8C4" points="870.6 459.68 875.46 458.14 874.75 462.82 874.6 463.85 873.18 462.37"></polygon>
            <path d="M873.18,462.37 C873.264538,462.263116 873.37003,462.174639 873.49,462.11 C873.633544,462.019317 873.816456,462.019317 873.96,462.11 C874.028057,462.192304 874.085197,462.283055 874.13,462.38 C874.263885,462.603533 874.491894,462.754313 874.75,462.79 L874.6,463.79 L873.18,462.37 Z" id="Path" fill="#727A9C"></path>
            <path d="M861.89,442.069931 C861.89,442.069931 879.26,441.97 875.17,449.36 C871.08,456.75 864.69,457.64 864.69,457.64 L861.89,442.069931 Z" id="Path" fill="#FFB0B1"></path>
        </g>
    </g>
</svg>